<?xml version="1.0" encoding="UTF-8" standalone="no"?>
<!-- Created with Inkscape (http://www.inkscape.org/) -->
<svg
   xmlns:svg="http://www.w3.org/2000/svg"
   xmlns="http://www.w3.org/2000/svg"
   version="1.0"
   width="941.78448"
   height="113.14013"
   id="svg2">
  <defs
     id="defs4" />
  <g
     transform="translate(229.28657,-524.5188)"
     id="layer1">
    <path
       d="M -3.3725046,544.45697 L 14.26763,544.45697 L 14.26763,565.96112 L 10.73858,565.96112 L 9.4517102,560.75385 C 8.0696802,562.65766 6.2026182,564.17894 3.8505172,565.31769 C 1.4983582,566.45644 -1.0585648,567.02582 -3.8202586,567.02582 C -5.5383776,567.02582 -7.0505426,566.88568 -8.3567576,566.60541 C -9.6630076,566.32513 -10.810874,565.96112 -11.800362,565.51337 C -12.789876,565.06561 -13.630126,564.58026 -14.321114,564.05731 C -15.012123,563.53437 -15.618527,563.01142 -16.140328,562.48846 C -17.671585,561.03241 -18.866449,559.52993 -19.724922,557.98102 C -20.583407,556.43212 -21.218009,554.91084 -21.628731,553.41718 C -22.03946,551.92354 -22.282136,550.5048 -22.356758,549.16095 C -22.431387,547.81714 -22.4687,546.60404 -22.468697,545.52167 C -22.4687,543.05733 -22.095287,540.59327 -21.348458,538.12946 C -20.601636,535.6657 -19.44437,533.43491 -17.876656,531.43707 C -16.308956,529.43931 -14.330524,527.8152 -11.941353,526.56476 C -9.5522086,525.31439 -6.7147276,524.68919 -3.4289016,524.68915 C -1.5627148,524.68919 0.32257816,524.95978 2.2269822,525.50092 C 4.1313312,526.04213 5.8767722,526.85419 7.4633102,527.93707 C 9.0497802,529.02004 10.39361,530.40146 11.4948,532.08136 C 12.59592,533.76132 13.29575,535.72124 13.59429,537.96112 L 8.3306202,537.96112 C 7.8828302,536.20659 7.2109202,534.77874 6.3148722,533.67755 C 5.4187642,532.57643 4.4107492,531.71767 3.2908252,531.10126 C 2.1708432,530.48492 1.0041772,530.06479 -0.20917484,529.84088 C -1.4225778,529.61704 -2.5892438,529.5051 -3.7091746,529.50507 C -5.5013496,529.5051 -7.2000786,529.85972 -8.8053666,530.56891 C -10.410688,531.27817 -11.810629,532.3235 -13.005196,533.7049 C -14.199787,535.08635 -15.142291,536.79448 -15.832711,538.82928 C -16.523149,540.86414 -16.868363,543.18836 -16.868355,545.80194 C -16.868363,547.85502 -16.6724,549.87076 -16.280464,551.84918 C -15.888547,553.82763 -15.188718,555.60098 -14.180977,557.16925 C -13.173258,558.73754 -11.810629,559.99763 -10.093087,560.94952 C -8.3755736,561.90143 -6.1729796,562.37738 -3.4852976,562.37738 C -2.9999688,562.37738 -2.4305928,562.34947 -1.7771688,562.29364 C -1.1237908,562.23782 -0.44247584,562.12588 0.26677716,561.95782 C 0.97597916,561.78978 1.7134052,561.5377 2.4790572,561.2016 C 3.2446542,560.8655 4.0005942,560.39895 4.7468792,559.80194 C 6.5014052,558.41995 7.6774702,556.83287 8.2750802,555.04071 C 8.8726202,553.24857 9.1714102,551.27014 9.1714402,549.10541 L -3.3725046,549.10541 L -3.3725046,544.45697 z M 25.43072,551.28949 C 25.43071,552.26021 25.54265,553.38956 25.76653,554.67755 C 25.9904,555.96557 26.41024,557.18806 27.02605,558.34503 C 27.64185,559.50202 28.50973,560.48184 29.62969,561.28448 C 30.74963,562.08714 32.18746,562.48847 33.94317,562.48846 C 35.69771,562.48847 37.13496,562.08714 38.25494,561.28448 C 39.37487,560.48184 40.24275,559.50202 40.85857,558.34503 C 41.47435,557.18806 41.89419,555.96557 42.1181,554.67755 C 42.34195,553.38956 42.45389,552.26021 42.45391,551.28949 C 42.45389,550.3188 42.34195,549.18945 42.1181,547.90143 C 41.89419,546.61344 41.47435,545.39067 40.85857,544.23309 C 40.24275,543.07556 39.37487,542.09546 38.25494,541.29279 C 37.13496,540.49016 35.69771,540.08883 33.94317,540.08881 C 32.18746,540.08883 30.74963,540.49016 29.62969,541.29279 C 28.50973,542.09546 27.64185,543.07556 27.02605,544.23309 C 26.41024,545.39067 25.9904,546.61344 25.76653,547.90143 C 25.54265,549.18945 25.43071,550.3188 25.43072,551.28949 L 25.43072,551.28949 z M 20.33453,551.28949 C 20.33452,549.3857 20.60511,547.5098 21.14629,545.6618 C 21.68747,543.81384 22.51803,542.16183 23.63799,540.70575 C 24.75794,539.24972 26.16728,538.07366 27.86602,537.17755 C 29.56474,536.2815 31.59045,535.83347 33.94317,535.83344 C 36.29471,535.83347 38.31986,536.2815 40.01861,537.17755 C 41.71731,538.07366 43.12666,539.24972 44.24664,540.70575 C 45.36656,542.16183 46.19713,543.81384 46.73833,545.6618 C 47.27948,547.5098 47.55007,549.3857 47.5501,551.28949 C 47.55007,553.19331 47.27948,555.0692 46.73833,556.91718 C 46.19713,558.76516 45.36656,560.41718 44.24664,561.87323 C 43.12666,563.32929 41.71731,564.50535 40.01861,565.40143 C 38.31986,566.29751 36.29471,566.74554 33.94317,566.74554 C 31.59045,566.74554 29.56474,566.29751 27.86602,565.40143 C 26.16728,564.50535 24.75794,563.32929 23.63799,561.87323 C 22.51803,560.41718 21.68747,558.76516 21.14629,556.91718 C 20.60511,555.0692 20.33452,553.19331 20.33453,551.28949 L 20.33453,551.28949 z M 71.72198,536.67255 L 77.09844,536.67255 L 65.95415,565.96112 L 60.69048,565.96112 L 49.99395,536.67255 L 55.70538,536.67255 L 63.32232,560.52997 L 63.4334,560.52997 L 71.72198,536.67255 z M 101.34551,548.99261 C 101.27143,547.87268 101.08515,546.78064 100.78667,545.71649 C 100.48815,544.65239 100.02131,543.719 99.386158,542.91632 C 98.750968,542.11369 97.929518,541.46969 96.921808,540.98431 C 95.914058,540.49899 94.663368,540.25631 93.169728,540.25629 C 92.049758,540.25631 90.995318,540.49899 90.006398,540.98431 C 89.017458,541.46969 88.158978,542.11369 87.430958,542.91632 C 86.70292,543.719 86.12415,544.65239 85.69463,545.71649 C 85.2651,546.78064 85.05034,547.87268 85.05035,548.99261 L 101.34551,548.99261 z M 106.05035,556.77704 C 106.01272,557.11315 105.89138,557.6079 105.68633,558.26129 C 105.48123,558.9147 105.17332,559.62393 104.76263,560.38898 C 104.35187,561.15404 103.82921,561.92878 103.19463,562.7132 C 102.56001,563.49762 101.77558,564.18834 100.84136,564.78534 C 100.50638,565.00865 100.12414,565.24164 99.694628,565.48431 C 99.265088,565.72699 98.742418,565.94175 98.126638,566.1286 C 97.510818,566.31545 96.773388,566.47439 95.914358,566.60541 C 95.055288,566.73643 94.046988,566.80194 92.889458,566.80194 C 90.836378,566.80194 88.997798,566.43793 87.373708,565.7099 C 85.7496,564.98187 84.37757,563.96446 83.25762,562.65765 C 82.13766,561.35086 81.27918,559.80138 80.68218,558.00922 C 80.08517,556.21707 79.78667,554.25687 79.78667,552.1286 C 79.78667,549.85111 80.06666,547.72314 80.62664,545.74469 C 81.18661,543.76628 82.03598,542.03964 83.17474,540.56476 C 84.31348,539.08993 85.76954,537.93267 87.542898,537.09296 C 89.316238,536.25331 91.415728,535.83347 93.841358,535.83344 C 95.969598,535.83347 97.817858,536.23479 99.386158,537.03741 C 100.95442,537.8401 102.26122,538.98796 103.30657,540.48102 C 104.35187,541.97412 105.13573,543.77539 105.65813,545.88483 C 106.18049,547.9943 106.44167,550.33703 106.4417,552.91302 L 85.05035,552.91302 C 85.05034,555.9744 85.75957,558.34504 87.178028,560.02496 C 88.596478,561.7049 90.724728,562.54486 93.562798,562.54486 C 94.719188,562.54486 95.754838,562.3489 96.669728,561.95697 C 97.584588,561.56505 98.368728,561.0703 99.022148,560.47272 C 99.675528,559.87515 100.17968,559.24995 100.5346,558.59711 C 100.88947,557.94428 101.08515,557.33759 101.12164,556.77704 L 106.05035,556.77704 z M 117.95855,565.96112 L 113.02984,565.96112 L 113.02984,536.67255 L 117.67828,536.67255 L 117.67828,541.54486 L 117.78936,541.54486 C 118.76005,539.82793 119.9082,538.44678 121.23382,537.40143 C 122.55941,536.35613 124.15531,535.83347 126.02154,535.83344 C 126.32002,535.83347 126.5627,535.84286 126.74956,535.86163 C 126.9364,535.88046 127.12324,535.92689 127.31011,536.00092 L 127.31011,541.09711 L 125.4627,541.09711 C 124.30513,541.09713 123.26892,541.30249 122.35406,541.7132 C 121.43917,542.12395 120.65503,542.69332 120.00164,543.42133 C 119.34823,544.14937 118.84436,544.98934 118.49004,545.94122 C 118.1357,546.89315 117.95854,547.89205 117.95855,548.93793 L 117.95855,565.96112 z M 154.80767,565.96112 L 149.88067,565.96112 L 149.88067,547.92963 C 149.88065,545.3901 149.43261,543.47632 148.53655,542.18829 C 147.64045,540.90031 145.99727,540.25631 143.60699,540.25629 C 142.89831,540.25631 142.09594,540.38705 141.19988,540.6485 C 140.30379,540.91 139.46383,541.40475 138.67998,542.13275 C 137.89612,542.8608 137.2336,543.85942 136.69244,545.1286 C 136.15125,546.39783 135.88066,548.02193 135.88067,550.00092 L 135.88067,565.96112 L 130.95196,565.96112 L 130.95196,536.67255 L 135.60039,536.67255 L 135.60039,540.81683 L 135.71148,540.81683 C 135.97351,540.44316 136.34721,539.96721 136.83257,539.38898 C 137.31791,538.8108 137.92432,538.26022 138.65179,537.73724 C 139.37923,537.21432 140.22831,536.76628 141.19903,536.39313 C 142.16972,536.02003 143.29024,535.83347 144.5606,535.83344 C 145.68054,535.83347 146.8472,535.97332 148.0606,536.25299 C 149.27396,536.53272 150.38451,537.04599 151.39227,537.79279 C 152.39997,538.53964 153.22114,539.57585 153.85577,540.90143 C 154.49034,542.22705 154.80764,543.93518 154.80767,546.02582 L 154.80767,565.96112 z M 162.12383,536.67255 L 166.77227,536.67255 L 166.77227,540.81683 L 166.88335,540.81683 C 167.14539,540.44316 167.50969,539.96721 167.97625,539.38898 C 168.44279,538.8108 169.03068,538.26022 169.73992,537.73724 C 170.44914,537.21432 171.2985,536.76628 172.28802,536.39313 C 173.2775,536.02003 174.42566,535.83347 175.73247,535.83344 C 177.03812,535.83347 178.13899,536.01063 179.03509,536.36493 C 179.93114,536.71929 180.67797,537.13913 181.27557,537.62445 C 181.87312,538.10983 182.33995,538.63249 182.67608,539.19244 C 183.01215,539.75245 183.29186,540.21928 183.51519,540.59296 C 184.11331,539.92078 184.71088,539.28618 185.30791,538.68915 C 185.90489,538.09217 186.53949,537.58831 187.21172,537.17755 C 187.88389,536.76685 188.64923,536.44015 189.50774,536.19745 C 190.36619,535.9548 191.35541,535.83347 192.47539,535.83344 C 193.25921,535.83347 194.1738,535.9642 195.21917,536.22565 C 196.26446,536.48715 197.25396,536.9725 198.18768,537.6817 C 199.12131,538.39096 199.91485,539.38957 200.56829,540.67755 C 201.22165,541.96558 201.54835,543.63611 201.54839,545.68915 L 201.54839,565.96112 L 196.61968,565.96112 L 196.61968,547.03241 C 196.61964,545.01697 196.23712,543.38375 195.4721,542.13275 C 194.70701,540.8818 193.27915,540.25631 191.18853,540.25629 C 190.1426,540.25631 189.19953,540.48047 188.35931,540.92877 C 187.51903,541.37712 186.8004,541.96529 186.20342,542.6933 C 185.60639,543.42135 185.13984,544.26131 184.80376,545.2132 C 184.46764,546.16512 184.29959,547.12642 184.29961,548.09711 L 184.29961,565.96112 L 179.3709,565.96112 L 179.3709,545.68915 C 179.37088,545.09216 179.30566,544.46696 179.17522,543.81354 C 179.04475,543.16016 178.80208,542.57198 178.4472,542.04901 C 178.09228,541.52609 177.61633,541.09656 177.01934,540.76044 C 176.42232,540.42436 175.67549,540.25631 174.77886,540.25629 C 174.07019,540.25631 173.26782,540.38705 172.37176,540.6485 C 171.47567,540.91 170.6357,541.40475 169.85186,542.13275 C 169.06799,542.8608 168.40548,543.85942 167.86431,545.1286 C 167.32312,546.39783 167.05253,548.02193 167.05254,550.00092 L 167.05254,565.96112 L 162.12383,565.96112 L 162.12383,536.67255 z M 228.87676,548.99261 C 228.80268,547.87268 228.6164,546.78064 228.31792,545.71649 C 228.0194,544.65239 227.55256,543.719 226.91741,542.91632 C 226.28222,542.11369 225.46077,541.46969 224.45306,540.98431 C 223.44531,540.49899 222.19462,540.25631 220.70098,540.25629 C 219.58101,540.25631 218.52657,540.49899 217.53765,540.98431 C 216.54871,541.46969 215.69023,542.11369 214.96221,542.91632 C 214.23417,543.719 213.6554,544.65239 213.22588,545.71649 C 212.79635,546.78064 212.58159,547.87268 212.5816,548.99261 L 228.87676,548.99261 z M 233.5816,556.77704 C 233.54397,557.11315 233.42263,557.6079 233.21758,558.26129 C 233.01248,558.9147 232.70457,559.62393 232.29388,560.38898 C 231.88312,561.15404 231.36046,561.92878 230.72588,562.7132 C 230.09126,563.49762 229.30683,564.18834 228.37261,564.78534 C 228.03763,565.00865 227.65539,565.24164 227.22588,565.48431 C 226.79634,565.72699 226.27367,565.94175 225.65789,566.1286 C 225.04207,566.31545 224.30464,566.47439 223.44561,566.60541 C 222.58654,566.73643 221.57824,566.80194 220.42071,566.80194 C 218.36763,566.80194 216.52905,566.43793 214.90496,565.7099 C 213.28085,564.98187 211.90882,563.96446 210.78887,562.65765 C 209.66891,561.35086 208.81043,559.80138 208.21343,558.00922 C 207.61642,556.21707 207.31792,554.25687 207.31792,552.1286 C 207.31792,549.85111 207.59791,547.72314 208.15789,545.74469 C 208.71786,543.76628 209.56723,542.03964 210.70599,540.56476 C 211.84473,539.08993 213.30079,537.93267 215.07415,537.09296 C 216.84749,536.25331 218.94698,535.83347 221.37261,535.83344 C 223.50085,535.83347 225.34911,536.23479 226.91741,537.03741 C 228.48567,537.8401 229.79247,538.98796 230.83782,540.48102 C 231.88312,541.97412 232.66698,543.77539 233.18938,545.88483 C 233.71174,547.9943 233.97292,550.33703 233.97295,552.91302 L 212.5816,552.91302 C 212.58159,555.9744 213.29082,558.34504 214.70928,560.02496 C 216.12773,561.7049 218.25598,562.54486 221.09405,562.54486 C 222.25044,562.54486 223.28609,562.3489 224.20098,561.95697 C 225.11584,561.56505 225.89998,561.0703 226.5534,560.47272 C 227.20678,559.87515 227.71093,559.24995 228.06585,558.59711 C 228.42072,557.94428 228.6164,557.33759 228.65289,556.77704 L 233.5816,556.77704 z M 263.74517,565.96112 L 258.81817,565.96112 L 258.81817,547.92963 C 258.81815,545.3901 258.37011,543.47632 257.47405,542.18829 C 256.57795,540.90031 254.93477,540.25631 252.54449,540.25629 C 251.83581,540.25631 251.03344,540.38705 250.13738,540.6485 C 249.24129,540.91 248.40133,541.40475 247.61748,542.13275 C 246.83362,542.8608 246.1711,543.85942 245.62994,545.1286 C 245.08875,546.39783 244.81816,548.02193 244.81817,550.00092 L 244.81817,565.96112 L 239.88946,565.96112 L 239.88946,536.67255 L 244.53789,536.67255 L 244.53789,540.81683 L 244.64898,540.81683 C 244.91101,540.44316 245.28471,539.96721 245.77007,539.38898 C 246.25541,538.8108 246.86182,538.26022 247.58929,537.73724 C 248.31673,537.21432 249.16581,536.76628 250.13653,536.39313 C 251.10722,536.02003 252.22774,535.83347 253.4981,535.83344 C 254.61804,535.83347 255.7847,535.97332 256.9981,536.25299 C 258.21146,536.53272 259.32201,537.04599 260.32977,537.79279 C 261.33747,538.53964 262.15864,539.57585 262.79327,540.90143 C 263.42784,542.22705 263.74514,543.93518 263.74517,546.02582 L 263.74517,565.96112 z M 277.10943,540.76044 L 277.10943,559.80194 C 277.10942,560.36135 277.21196,560.79971 277.41705,561.117 C 277.62211,561.43431 277.8833,561.66759 278.20061,561.81683 C 278.5179,561.96609 278.84461,562.05011 279.18072,562.06891 C 279.51681,562.08771 279.81588,562.09711 280.07793,562.09711 L 281.81255,562.09711 L 281.81255,565.96112 C 280.91703,566.03632 280.14258,566.12034 279.48919,566.2132 C 278.83578,566.30605 278.37862,566.35248 278.11773,566.35248 C 276.88497,566.35248 275.88607,566.19383 275.12102,565.87653 C 274.35596,565.55922 273.75867,565.12059 273.32915,564.56061 C 272.89962,564.00063 272.60084,563.33812 272.43279,562.57306 C 272.26474,561.80801 272.18071,560.97716 272.18072,560.08051 L 272.18072,540.76044 L 268.20562,540.76044 L 268.20562,536.67255 L 272.18072,536.67255 L 272.18072,528.49677 L 277.10943,528.49677 L 277.10943,536.67255 L 281.81255,536.67255 L 281.81255,540.76044 L 277.10943,540.76044 z M -18.100533,621.28949 C -18.10054,622.26021 -17.988602,623.38956 -17.764717,624.67755 C -17.540848,625.96557 -17.121008,627.18806 -16.505196,628.34503 C -15.889401,629.50202 -15.021523,630.48184 -13.901558,631.28448 C -12.781616,632.08714 -11.343792,632.48847 -9.5880816,632.48846 C -7.8335416,632.48847 -6.3962866,632.08714 -5.2763136,631.28448 C -4.1563806,630.48184 -3.2885016,629.50202 -2.6726758,628.34503 C -2.0568948,627.18806 -1.6370548,625.96557 -1.4131548,624.67755 C -1.1893018,623.38956 -1.0773638,622.26021 -1.0773388,621.28949 C -1.0773638,620.3188 -1.1893018,619.18945 -1.4131548,617.90143 C -1.6370548,616.61344 -2.0568948,615.39067 -2.6726758,614.23309 C -3.2885016,613.07556 -4.1563806,612.09546 -5.2763136,611.29279 C -6.3962866,610.49016 -7.8335416,610.08883 -9.5880816,610.08881 C -11.343792,610.08883 -12.781616,610.49016 -13.901558,611.29279 C -15.021523,612.09546 -15.889401,613.07556 -16.505196,614.23309 C -17.121008,615.39067 -17.540848,616.61344 -17.764717,617.90143 C -17.988602,619.18945 -18.10054,620.3188 -18.100533,621.28949 L -18.100533,621.28949 z M -23.196724,621.28949 C -23.196726,619.3857 -22.926137,617.5098 -22.384957,615.6618 C -21.843782,613.81384 -21.013216,612.16183 -19.893257,610.70575 C -18.773309,609.24972 -17.363968,608.07366 -15.66523,607.17755 C -13.966511,606.2815 -11.940797,605.83347 -9.5880816,605.83344 C -7.2365366,605.83347 -5.2113926,606.2815 -3.5126416,607.17755 C -1.8139348,608.07366 -0.40459384,609.24972 0.71538516,610.70575 C 1.8353132,612.16183 2.6658782,613.81384 3.2070842,615.6618 C 3.7482342,617.5098 4.0188232,619.3857 4.0188522,621.28949 C 4.0188232,623.19331 3.7482342,625.0692 3.2070842,626.91718 C 2.6658782,628.76516 1.8353132,630.41718 0.71538516,631.87323 C -0.40459384,633.32929 -1.8139348,634.50535 -3.5126416,635.40143 C -5.2113926,636.29751 -7.2365366,636.74554 -9.5880816,636.74554 C -11.940797,636.74554 -13.966511,636.29751 -15.66523,635.40143 C -17.363968,634.50535 -18.773309,633.32929 -19.893257,631.87323 C -21.013216,630.41718 -21.843782,628.76516 -22.384957,626.91718 C -22.926137,625.0692 -23.196726,623.19331 -23.196724,621.28949 L -23.196724,621.28949 z M 15.75957,610.76044 L 15.75957,635.96112 L 10.83086,635.96112 L 10.83086,610.76044 L 6.7993702,610.76044 L 6.7993702,606.67255 L 10.83086,606.67255 L 10.83086,601.63275 C 10.83086,599.39288 11.49366,597.75966 12.81927,596.73309 C 14.14486,595.7066 16.02047,595.19334 18.4461,595.1933 C 18.81978,595.19334 19.18408,595.20274 19.53899,595.2215 C 19.89388,595.24034 20.27641,595.26796 20.68658,595.30438 L 20.68658,599.72894 C 20.38806,599.69138 20.05224,599.66347 19.67913,599.6452 C 19.30599,599.62701 18.97017,599.6179 18.67168,599.61786 C 17.58818,599.6179 16.83195,599.88848 16.40301,600.42963 C 15.97404,600.97084 15.75956,601.83843 15.75957,603.03241 L 15.75957,606.67255 L 20.68658,606.67255 L 20.68658,610.76044 L 15.75957,610.76044 z M 69.55669,607.84833 C 69.1841,606.0938 68.5683,604.66595 67.70928,603.56476 C 66.8502,602.46364 65.8889,601.61427 64.82537,601.01666 C 63.76179,600.41912 62.65123,600.0178 61.49371,599.81268 C 60.33613,599.60764 59.272,599.5051 58.30132,599.50507 C 56.47155,599.5051 54.76342,599.8412 53.17693,600.51337 C 51.59041,601.1856 50.19987,602.18422 49.0053,603.50922 C 47.81071,604.83428 46.86821,606.49541 46.17779,608.49261 C 45.48735,610.48987 45.14213,612.81409 45.14214,615.46527 C 45.14213,617.81685 45.36601,620.01945 45.81377,622.07306 C 46.26152,624.1267 47.00806,625.90005 48.0534,627.39313 C 49.09871,628.88622 50.47074,630.06228 52.16949,630.92133 C 53.8682,631.78038 55.96797,632.2099 58.4688,632.2099 C 59.36543,632.2099 60.37373,632.06977 61.49371,631.78949 C 62.61363,631.50922 63.72419,630.97716 64.82537,630.1933 C 65.9265,629.40945 66.94391,628.2989 67.87762,626.86163 C 68.81126,625.42439 69.50197,623.52941 69.94976,621.1767 L 75.21343,621.1767 C 74.8397,623.71512 74.21421,625.86189 73.33697,627.617 C 72.45965,629.37214 71.45164,630.83759 70.31292,632.01337 C 69.17413,633.18915 67.97016,634.11314 66.70098,634.78534 C 65.43175,635.45754 64.20925,635.96169 63.0335,636.29779 C 61.85769,636.63389 60.78445,636.83925 59.81377,636.91388 C 58.84305,636.9885 58.11502,637.02582 57.62969,637.02582 C 55.35217,637.02582 53.13077,636.63361 50.96551,635.84918 C 48.80021,635.06476 46.86821,633.82318 45.16949,632.12445 C 43.47075,630.42573 42.10812,628.22313 41.0816,625.51666 C 40.05506,622.81021 39.5418,619.51558 39.5418,615.63275 C 39.5418,612.53382 39.97104,609.70574 40.82952,607.1485 C 41.688,604.59132 42.91989,602.38873 44.5252,600.54071 C 46.1305,598.69277 48.09981,597.25551 50.43316,596.22894 C 52.76648,595.20245 55.38919,594.68919 58.30132,594.68915 C 60.87731,594.68919 63.15453,595.0626 65.13299,595.80939 C 67.11139,596.55625 68.78221,597.53635 70.14544,598.74969 C 71.5086,599.96311 72.58213,601.36305 73.36602,602.94952 C 74.14984,604.53606 74.63519,606.169 74.82207,607.84833 L 69.55669,607.84833 z M 99.050348,621.00922 C 98.863478,621.15848 98.620798,621.30773 98.322318,621.45697 C 98.023798,621.60624 97.575758,621.74637 96.978198,621.87738 C 96.380608,622.00842 95.605868,622.15767 94.653978,622.32513 C 93.702058,622.49263 92.461058,622.66979 90.930958,622.85663 C 90.332798,622.93184 89.669718,623.05346 88.941698,623.2215 C 88.213668,623.38956 87.532348,623.64163 86.897758,623.97772 C 86.26315,624.31383 85.73137,624.77099 85.30242,625.34918 C 84.87346,625.9274 84.65898,626.68362 84.65899,627.61786 C 84.65898,629.22317 85.07882,630.47358 85.91851,631.36908 C 86.75818,632.26459 88.111128,632.71234 89.977348,632.71234 C 91.134888,632.71234 92.255118,632.53518 93.338068,632.18085 C 94.420978,631.82652 95.382278,631.34146 96.221978,630.72565 C 97.061638,630.10985 97.742948,629.38182 98.265918,628.54156 C 98.788848,627.70132 99.050318,626.79585 99.050348,625.82513 L 99.050348,621.00922 z M 81.01885,615.57635 C 81.05531,613.82182 81.37232,612.32874 81.9699,611.09711 C 82.56747,609.86552 83.38892,608.85751 84.43426,608.07306 C 85.47958,607.28866 86.73967,606.71929 88.214528,606.36493 C 89.689368,606.01063 91.322868,605.83347 93.115038,605.83344 C 93.487588,605.83347 94.019358,605.86138 94.710378,605.91718 C 95.401358,605.97303 96.157298,606.09437 96.978198,606.28119 C 97.799058,606.46807 98.620228,606.73866 99.441698,607.09296 C 100.26313,607.44731 101.00996,607.93267 101.68218,608.54901 C 102.35436,609.16541 102.90493,609.92164 103.33392,610.81769 C 103.76284,611.71379 103.97732,612.77763 103.97735,614.00922 L 103.97735,630.86493 C 103.97732,632.02249 104.51907,632.60126 105.60259,632.60126 C 105.82587,632.60126 106.07766,632.58246 106.35796,632.54486 C 106.63821,632.50727 106.9276,632.45144 107.22613,632.37738 L 107.22613,635.96112 C 106.81594,636.07277 106.4055,636.19411 105.9948,636.32513 C 105.58405,636.45616 105.09841,636.52167 104.53789,636.52167 C 103.45551,636.52167 102.57823,636.39093 101.90606,636.12946 C 101.23383,635.86798 100.72057,635.53188 100.36626,635.12115 C 100.01191,634.71043 99.760118,634.23448 99.610888,633.6933 C 99.461618,633.15212 99.368198,632.60126 99.330618,632.04071 C 98.845248,632.56366 98.294378,633.10513 97.678028,633.6651 C 97.061638,634.22508 96.324208,634.73834 95.465748,635.2049 C 94.607248,635.67145 93.627438,636.05426 92.526298,636.35333 C 91.425128,636.6524 90.165318,636.80194 88.746878,636.80194 C 87.402468,636.80194 86.17029,636.59658 85.05035,636.18585 C 83.93039,635.77513 82.95968,635.19635 82.13824,634.44952 C 81.31678,633.7027 80.68218,632.81602 80.23443,631.78949 C 79.78667,630.76296 79.5628,629.6151 79.5628,628.34589 C 79.5628,627.74775 79.64682,626.97273 79.81487,626.02081 C 79.98292,625.06892 80.36545,624.12642 80.96246,623.1933 C 81.55946,622.26021 82.44613,621.42024 83.62249,620.6734 C 84.79883,619.92659 86.41354,619.42273 88.466608,619.1618 L 96.585988,618.1535 C 96.884468,618.11592 97.183258,618.05041 97.482348,617.95697 C 97.781398,617.86356 98.061388,617.69551 98.322318,617.45282 C 98.583198,617.21016 98.788278,616.87435 98.937548,616.44537 C 99.086778,616.01644 99.161408,615.42826 99.161428,614.68085 C 99.161408,611.50786 96.865678,609.92135 92.274218,609.92133 C 90.855748,609.92135 89.726398,610.10792 88.886158,610.48102 C 88.045898,610.85417 87.392498,611.33012 86.925958,611.90887 C 86.45939,612.48767 86.13269,613.10376 85.94585,613.75714 C 85.759,614.41056 85.62854,615.01697 85.5545,615.57635 L 81.01885,615.57635 z M 136.21392,635.96112 L 131.28692,635.96112 L 131.28692,617.92963 C 131.2869,615.3901 130.83886,613.47632 129.9428,612.18829 C 129.0467,610.90031 127.40352,610.25631 125.01324,610.25629 C 124.30456,610.25631 123.50219,610.38705 122.60613,610.6485 C 121.71004,610.91 120.87008,611.40475 120.08623,612.13275 C 119.30237,612.8608 118.63985,613.85942 118.09869,615.1286 C 117.5575,616.39783 117.28691,618.02193 117.28692,620.00092 L 117.28692,635.96112 L 112.35821,635.96112 L 112.35821,606.67255 L 117.00664,606.67255 L 117.00664,610.81683 L 117.11773,610.81683 C 117.37976,610.44316 117.75346,609.96721 118.23882,609.38898 C 118.72416,608.8108 119.33057,608.26022 120.05804,607.73724 C 120.78548,607.21432 121.63456,606.76628 122.60528,606.39313 C 123.57597,606.02003 124.69649,605.83347 125.96685,605.83344 C 127.08679,605.83347 128.25345,605.97332 129.46685,606.25299 C 130.68021,606.53272 131.79076,607.04599 132.79852,607.79279 C 133.80622,608.53964 134.62739,609.57585 135.26202,610.90143 C 135.89659,612.22705 136.21389,613.93518 136.21392,616.02582 L 136.21392,635.96112 z M 161.3941,621.00922 C 161.20723,621.15848 160.96455,621.30773 160.66607,621.45697 C 160.36755,621.60624 159.91951,621.74637 159.32195,621.87738 C 158.72436,622.00842 157.94962,622.15767 156.99773,622.32513 C 156.04581,622.49263 154.80481,622.66979 153.27471,622.85663 C 152.67655,622.93184 152.01347,623.05346 151.28545,623.2215 C 150.55742,623.38956 149.8761,623.64163 149.24151,623.97772 C 148.6069,624.31383 148.07512,624.77099 147.64617,625.34918 C 147.21721,625.9274 147.00273,626.68362 147.00274,627.61786 C 147.00273,629.22317 147.42257,630.47358 148.26226,631.36908 C 149.10193,632.26459 150.45488,632.71234 152.3211,632.71234 C 153.47864,632.71234 154.59887,632.53518 155.68182,632.18085 C 156.76473,631.82652 157.72603,631.34146 158.56573,630.72565 C 159.40539,630.10985 160.0867,629.38182 160.60967,628.54156 C 161.1326,627.70132 161.39407,626.79585 161.3941,625.82513 L 161.3941,621.00922 z M 143.3626,615.57635 C 143.39906,613.82182 143.71607,612.32874 144.31365,611.09711 C 144.91122,609.86552 145.73267,608.85751 146.77801,608.07306 C 147.82333,607.28866 149.08342,606.71929 150.55828,606.36493 C 152.03312,606.01063 153.66662,605.83347 155.45879,605.83344 C 155.83134,605.83347 156.36311,605.86138 157.05413,605.91718 C 157.74511,605.97303 158.50105,606.09437 159.32195,606.28119 C 160.14281,606.46807 160.96398,606.73866 161.78545,607.09296 C 162.60688,607.44731 163.35371,607.93267 164.02593,608.54901 C 164.69811,609.16541 165.24868,609.92164 165.67767,610.81769 C 166.10659,611.71379 166.32107,612.77763 166.3211,614.00922 L 166.3211,630.86493 C 166.32107,632.02249 166.86282,632.60126 167.94634,632.60126 C 168.16962,632.60126 168.42141,632.58246 168.70171,632.54486 C 168.98196,632.50727 169.27135,632.45144 169.56988,632.37738 L 169.56988,635.96112 C 169.15969,636.07277 168.74925,636.19411 168.33855,636.32513 C 167.9278,636.45616 167.44216,636.52167 166.88164,636.52167 C 165.79926,636.52167 164.92198,636.39093 164.24981,636.12946 C 163.57758,635.86798 163.06432,635.53188 162.71001,635.12115 C 162.35566,634.71043 162.10387,634.23448 161.95464,633.6933 C 161.80537,633.15212 161.71195,632.60126 161.67437,632.04071 C 161.189,632.56366 160.63813,633.10513 160.02178,633.6651 C 159.40539,634.22508 158.66796,634.73834 157.8095,635.2049 C 156.951,635.67145 155.97119,636.05426 154.87005,636.35333 C 153.76888,636.6524 152.50907,636.80194 151.09063,636.80194 C 149.74622,636.80194 148.51404,636.59658 147.3941,636.18585 C 146.27414,635.77513 145.30343,635.19635 144.48199,634.44952 C 143.66053,633.7027 143.02593,632.81602 142.57818,631.78949 C 142.13042,630.76296 141.90655,629.6151 141.90655,628.34589 C 141.90655,627.74775 141.99057,626.97273 142.15862,626.02081 C 142.32667,625.06892 142.7092,624.12642 143.30621,623.1933 C 143.90321,622.26021 144.78988,621.42024 145.96624,620.6734 C 147.14258,619.92659 148.75729,619.42273 150.81036,619.1618 L 158.92974,618.1535 C 159.22822,618.11592 159.52701,618.05041 159.8261,617.95697 C 160.12515,617.86356 160.40514,617.69551 160.66607,617.45282 C 160.92695,617.21016 161.13203,616.87435 161.2813,616.44537 C 161.43053,616.01644 161.50516,615.42826 161.50518,614.68085 C 161.50516,611.50786 159.20943,609.92135 154.61797,609.92133 C 153.1995,609.92135 152.07015,610.10792 151.22991,610.48102 C 150.38965,610.85417 149.73625,611.33012 149.26971,611.90887 C 148.80314,612.48767 148.47644,613.10376 148.2896,613.75714 C 148.10275,614.41056 147.97229,615.01697 147.89825,615.57635 L 143.3626,615.57635 z M 178.11822,621.23309 C 178.11821,622.83841 178.27686,624.33178 178.59417,625.7132 C 178.91146,627.09463 179.39681,628.28921 180.05022,629.29694 C 180.70362,630.30467 181.52478,631.09793 182.51372,631.6767 C 183.50264,632.25548 184.66931,632.54486 186.01372,632.54486 C 186.79756,632.54486 187.65633,632.39561 188.59002,632.09711 C 189.52368,631.79861 190.39184,631.27594 191.19451,630.52911 C 191.99714,629.78229 192.66906,628.77428 193.21026,627.50507 C 193.75141,626.23587 194.022,624.63057 194.02203,622.68915 C 194.022,621.49401 193.94738,620.17781 193.79815,618.74054 C 193.64887,617.3033 193.30338,615.95007 192.76165,614.68085 C 192.21988,613.41166 191.42634,612.35694 190.38103,611.51666 C 189.33569,610.67644 187.91752,610.25631 186.12652,610.25629 C 184.22156,610.25631 182.73731,610.64852 181.67376,611.43292 C 180.61019,612.21737 179.80754,613.17896 179.2658,614.31769 C 178.72404,615.45646 178.39734,616.66044 178.2857,617.92963 C 178.17404,619.19885 178.11821,620.3 178.11822,621.23309 L 178.11822,621.23309 z M 199.00542,635.96112 L 194.35699,635.96112 L 194.35699,631.92963 L 194.2459,631.92963 C 193.72293,632.93679 193.12564,633.74856 192.45403,634.36493 C 191.78238,634.9813 191.08255,635.47605 190.35455,635.84918 C 189.6265,636.22231 188.87967,636.47439 188.11407,636.60541 C 187.34843,636.73643 186.61128,636.80194 185.90264,636.80194 C 183.40068,636.80194 181.32825,636.27928 179.68536,635.23395 C 178.04245,634.18862 176.72653,632.86302 175.7376,631.25714 C 174.74867,629.65127 174.04884,627.88703 173.63811,625.96442 C 173.22739,624.04182 173.02202,622.20324 173.02203,620.44867 C 173.02202,618.39563 173.29261,616.48242 173.83379,614.70905 C 174.37497,612.93571 175.16822,611.38652 176.21355,610.06146 C 177.25888,608.73646 178.53748,607.70053 180.04937,606.95367 C 181.56124,606.20688 183.28788,605.83347 185.2293,605.83344 C 186.57369,605.83347 187.72184,606.01063 188.67376,606.36493 C 189.62564,606.71929 190.4471,607.15793 191.13811,607.68085 C 191.82909,608.20382 192.39847,608.75469 192.84624,609.33344 C 193.29398,609.91224 193.6671,610.4067 193.96563,610.81683 L 194.07842,610.81683 L 194.07842,595.75385 L 199.00542,595.75385 L 199.00542,635.96112 z M 223.73785,621.00922 C 223.55098,621.15848 223.3083,621.30773 223.00982,621.45697 C 222.7113,621.60624 222.26326,621.74637 221.6657,621.87738 C 221.06811,622.00842 220.29337,622.15767 219.34148,622.32513 C 218.38956,622.49263 217.14856,622.66979 215.61846,622.85663 C 215.0203,622.93184 214.35722,623.05346 213.6292,623.2215 C 212.90117,623.38956 212.21985,623.64163 211.58526,623.97772 C 210.95065,624.31383 210.41887,624.77099 209.98992,625.34918 C 209.56096,625.9274 209.34648,626.68362 209.34649,627.61786 C 209.34648,629.22317 209.76632,630.47358 210.60601,631.36908 C 211.44568,632.26459 212.79863,632.71234 214.66485,632.71234 C 215.82239,632.71234 216.94262,632.53518 218.02557,632.18085 C 219.10848,631.82652 220.06978,631.34146 220.90948,630.72565 C 221.74914,630.10985 222.43045,629.38182 222.95342,628.54156 C 223.47635,627.70132 223.73782,626.79585 223.73785,625.82513 L 223.73785,621.00922 z M 205.70635,615.57635 C 205.74281,613.82182 206.05982,612.32874 206.6574,611.09711 C 207.25497,609.86552 208.07642,608.85751 209.12176,608.07306 C 210.16708,607.28866 211.42717,606.71929 212.90203,606.36493 C 214.37687,606.01063 216.01037,605.83347 217.80254,605.83344 C 218.17509,605.83347 218.70686,605.86138 219.39788,605.91718 C 220.08886,605.97303 220.8448,606.09437 221.6657,606.28119 C 222.48656,606.46807 223.30773,606.73866 224.1292,607.09296 C 224.95063,607.44731 225.69746,607.93267 226.36968,608.54901 C 227.04186,609.16541 227.59243,609.92164 228.02142,610.81769 C 228.45034,611.71379 228.66482,612.77763 228.66485,614.00922 L 228.66485,630.86493 C 228.66482,632.02249 229.20657,632.60126 230.29009,632.60126 C 230.51337,632.60126 230.76516,632.58246 231.04546,632.54486 C 231.32571,632.50727 231.6151,632.45144 231.91363,632.37738 L 231.91363,635.96112 C 231.50344,636.07277 231.093,636.19411 230.6823,636.32513 C 230.27155,636.45616 229.78591,636.52167 229.22539,636.52167 C 228.14301,636.52167 227.26573,636.39093 226.59356,636.12946 C 225.92133,635.86798 225.40807,635.53188 225.05376,635.12115 C 224.69941,634.71043 224.44762,634.23448 224.29839,633.6933 C 224.14912,633.15212 224.0557,632.60126 224.01812,632.04071 C 223.53275,632.56366 222.98188,633.10513 222.36553,633.6651 C 221.74914,634.22508 221.01171,634.73834 220.15325,635.2049 C 219.29475,635.67145 218.31494,636.05426 217.2138,636.35333 C 216.11263,636.6524 214.85282,636.80194 213.43438,636.80194 C 212.08997,636.80194 210.85779,636.59658 209.73785,636.18585 C 208.61789,635.77513 207.64718,635.19635 206.82574,634.44952 C 206.00428,633.7027 205.36968,632.81602 204.92193,631.78949 C 204.47417,630.76296 204.2503,629.6151 204.2503,628.34589 C 204.2503,627.74775 204.33432,626.97273 204.50237,626.02081 C 204.67042,625.06892 205.05295,624.12642 205.64996,623.1933 C 206.24696,622.26021 207.13363,621.42024 208.30999,620.6734 C 209.48633,619.92659 211.10104,619.42273 213.15411,619.1618 L 221.27349,618.1535 C 221.57197,618.11592 221.87076,618.05041 222.16985,617.95697 C 222.4689,617.86356 222.74889,617.69551 223.00982,617.45282 C 223.2707,617.21016 223.47578,616.87435 223.62505,616.44537 C 223.77428,616.01644 223.84891,615.42826 223.84893,614.68085 C 223.84891,611.50786 221.55318,609.92135 216.96172,609.92133 C 215.54325,609.92135 214.4139,610.10792 213.57366,610.48102 C 212.7334,610.85417 212.08,611.33012 211.61346,611.90887 C 211.14689,612.48767 210.82019,613.10376 210.63335,613.75714 C 210.4465,614.41056 210.31604,615.01697 210.242,615.57635 L 205.70635,615.57635 z"
       id="text2383"
       style="font-size:40px;font-style:normal;font-weight:normal;line-height:125%;fill:#000000;fill-opacity:1;stroke:none;stroke-width:1px;stroke-linecap:butt;stroke-linejoin:miter;stroke-opacity:1;font-family:Bitstream Vera Sans" />
    <path
       d="M 364.96912,544.28662 L 382.60925,544.28662 L 382.60925,565.79077 L 379.0802,565.79077 L 377.79333,560.5835 C 376.4113,562.48731 374.54424,564.00859 372.19214,565.14734 C 369.83998,566.28609 367.28306,566.85547 364.52136,566.85547 C 362.80324,566.85547 361.29108,566.71533 359.98486,566.43506 C 358.67861,566.15478 357.53075,565.79077 356.54126,565.34302 C 355.55175,564.89526 354.7115,564.40991 354.02051,563.88696 C 353.3295,563.36402 352.72309,562.84107 352.20129,562.31812 C 350.67004,560.86207 349.47517,559.35958 348.6167,557.81067 C 347.75821,556.26177 347.12361,554.74049 346.71289,553.24683 C 346.30216,551.75319 346.05949,550.33445 345.98486,548.9906 C 345.91023,547.64679 345.87292,546.43369 345.87292,545.35132 C 345.87292,542.88699 346.24633,540.42292 346.99316,537.95911 C 347.73999,535.49535 348.89725,533.26456 350.46497,531.26672 C 352.03267,529.26896 354.0111,527.64485 356.40027,526.39441 C 358.78941,525.14404 361.62689,524.51884 364.91272,524.5188 C 366.77891,524.51884 368.6642,524.78943 370.5686,525.33057 C 372.47295,525.87178 374.21839,526.68384 375.80493,527.76672 C 377.3914,528.84969 378.73523,530.23111 379.83643,531.91101 C 380.93754,533.59097 381.63737,535.55089 381.93591,537.79077 L 376.67224,537.79077 C 376.22445,536.03624 375.55254,534.60839 374.65649,533.5072 C 373.76039,532.40608 372.75237,531.54732 371.63245,530.93091 C 370.51246,530.31457 369.3458,529.89445 368.13245,529.67053 C 366.91904,529.44669 365.75238,529.33475 364.63245,529.33472 C 362.84027,529.33475 361.14154,529.68937 359.53625,530.39856 C 357.93093,531.10782 356.53099,532.15315 355.33643,533.53455 C 354.14183,534.91601 353.19933,536.62413 352.50891,538.65894 C 351.81847,540.69379 351.47326,543.01801 351.47327,545.63159 C 351.47326,547.68467 351.66922,549.70041 352.06116,551.67883 C 352.45307,553.65728 353.1529,555.43063 354.16064,556.9989 C 355.16836,558.56719 356.53099,559.82728 358.24853,560.77917 C 359.96605,561.73108 362.16864,562.20703 364.85632,562.20703 C 365.34165,562.20703 365.91103,562.17912 366.56445,562.12329 C 367.21783,562.06747 367.89914,561.95553 368.6084,561.78748 C 369.3176,561.61943 370.05503,561.36735 370.82068,561.03125 C 371.58628,560.69515 372.34222,560.2286 373.0885,559.63159 C 374.84303,558.2496 376.01909,556.66253 376.6167,554.87036 C 377.21424,553.07822 377.51303,551.09979 377.51306,548.93506 L 364.96912,548.93506 L 364.96912,544.28662 z M 393.77234,551.11914 C 393.77233,552.08986 393.88427,553.21921 394.10815,554.5072 C 394.33202,555.79522 394.75186,557.01771 395.36768,558.17468 C 395.98347,559.33167 396.85135,560.31149 397.97131,561.11414 C 399.09126,561.91679 400.52908,562.31812 402.28479,562.31812 C 404.03933,562.31812 405.47658,561.91679 406.59656,561.11414 C 407.71649,560.31149 408.58437,559.33167 409.2002,558.17468 C 409.81598,557.01771 410.23582,555.79522 410.45972,554.5072 C 410.68357,553.21921 410.79551,552.08986 410.79553,551.11914 C 410.79551,550.14845 410.68357,549.0191 410.45972,547.73108 C 410.23582,546.44309 409.81598,545.22032 409.2002,544.06274 C 408.58437,542.90521 407.71649,541.92511 406.59656,541.12244 C 405.47658,540.31981 404.03933,539.91848 402.28479,539.91846 C 400.52908,539.91848 399.09126,540.31981 397.97131,541.12244 C 396.85135,541.92511 395.98347,542.90521 395.36768,544.06274 C 394.75186,545.22032 394.33202,546.44309 394.10815,547.73108 C 393.88427,549.0191 393.77233,550.14845 393.77234,551.11914 L 393.77234,551.11914 z M 388.67615,551.11914 C 388.67615,549.21535 388.94673,547.33946 389.48791,545.49146 C 390.02909,543.6435 390.85966,541.99148 391.97961,540.5354 C 393.09956,539.07937 394.5089,537.90331 396.20764,537.0072 C 397.90636,536.11115 399.93207,535.66312 402.28479,535.66309 C 404.63633,535.66312 406.66148,536.11115 408.36023,537.0072 C 410.05894,537.90331 411.46828,539.07937 412.58826,540.5354 C 413.70818,541.99148 414.53875,543.6435 415.07996,545.49146 C 415.62111,547.33946 415.89169,549.21535 415.89172,551.11914 C 415.89169,553.02296 415.62111,554.89886 415.07996,556.74683 C 414.53875,558.59482 413.70818,560.24683 412.58826,561.70288 C 411.46828,563.15894 410.05894,564.335 408.36023,565.23108 C 406.66148,566.12716 404.63633,566.57519 402.28479,566.5752 C 399.93207,566.57519 397.90636,566.12716 396.20764,565.23108 C 394.5089,564.335 393.09956,563.15894 391.97961,561.70288 C 390.85966,560.24683 390.02909,558.59482 389.48791,556.74683 C 388.94673,554.89886 388.67615,553.02296 388.67615,551.11914 L 388.67615,551.11914 z M 440.62415,565.79077 L 440.62415,561.5354 L 440.51135,561.42261 C 439.46657,563.13957 438.24408,564.43697 436.84387,565.31482 C 435.44363,566.19267 433.56773,566.63159 431.21619,566.63159 C 430.13382,566.63159 429.03238,566.49145 427.91186,566.21118 C 426.79133,565.93091 425.76452,565.43616 424.83142,564.72693 C 423.89831,564.0177 423.14237,563.08431 422.5636,561.92676 C 421.98482,560.76921 421.69543,559.31316 421.69543,557.55859 L 421.69543,536.5022 L 426.62415,536.5022 L 426.62415,555.93506 C 426.62414,557.12908 426.77339,558.13681 427.0719,558.95825 C 427.37039,559.77971 427.77172,560.44251 428.27588,560.94666 C 428.78002,561.45081 429.37731,561.81482 430.06775,562.0387 C 430.75817,562.26258 431.49531,562.37452 432.27917,562.37451 C 433.84801,562.37452 435.14569,562.06661 436.17224,561.45081 C 437.19875,560.83501 438.01992,560.05115 438.63574,559.09924 C 439.25152,558.14735 439.69016,557.10202 439.95166,555.96326 C 440.21311,554.82451 440.34385,553.71396 440.34387,552.63159 L 440.34387,536.5022 L 445.27258,536.5022 L 445.27258,565.79077 L 440.62415,565.79077 z M 471.23547,536.5022 L 476.61194,536.5022 L 465.46765,565.79077 L 460.20398,565.79077 L 449.50745,536.5022 L 455.21887,536.5022 L 462.83582,560.35962 L 462.9469,560.35962 L 471.23547,536.5022 z M 500.85901,548.82227 C 500.78493,547.70233 500.59865,546.61029 500.30017,545.54614 C 500.00165,544.48204 499.53481,543.54865 498.89966,542.74597 C 498.26446,541.94334 497.44301,541.29934 496.4353,540.81396 C 495.42755,540.32864 494.17686,540.08596 492.68323,540.08594 C 491.56326,540.08596 490.50882,540.32864 489.5199,540.81396 C 488.53095,541.29934 487.67247,541.94334 486.94446,542.74597 C 486.21642,543.54865 485.63765,544.48204 485.20813,545.54614 C 484.7786,546.61029 484.56383,547.70233 484.56384,548.82227 L 500.85901,548.82227 z M 505.56384,556.60669 C 505.52622,556.9428 505.40488,557.43755 505.19983,558.09094 C 504.99472,558.74435 504.68682,559.45358 504.27612,560.21863 C 503.86537,560.98369 503.34271,561.75843 502.70813,562.54285 C 502.0735,563.32727 501.28908,564.01799 500.35486,564.61499 C 500.01987,564.8383 499.63763,565.07129 499.20813,565.31396 C 498.77858,565.55664 498.25592,565.7714 497.64014,565.95825 C 497.02431,566.1451 496.28689,566.30404 495.42786,566.43506 C 494.56879,566.56608 493.56049,566.63159 492.40295,566.63159 C 490.34988,566.63159 488.5113,566.26758 486.88721,565.53955 C 485.26309,564.81152 483.89107,563.79411 482.77112,562.4873 C 481.65116,561.18051 480.79268,559.63103 480.19568,557.83887 C 479.59867,556.04672 479.30017,554.08652 479.30017,551.95825 C 479.30017,549.68076 479.58016,547.55279 480.14014,545.57434 C 480.70011,543.59593 481.54947,541.86929 482.68823,540.39441 C 483.82698,538.91958 485.28303,537.76232 487.0564,536.92261 C 488.82974,536.08296 490.92923,535.66312 493.35486,535.66309 C 495.48309,535.66312 497.33136,536.06444 498.89966,536.86707 C 500.46791,537.66975 501.77471,538.81761 502.82007,540.31067 C 503.86537,541.80378 504.64922,543.60504 505.17163,545.71448 C 505.69398,547.82395 505.95517,550.16668 505.9552,552.74268 L 484.56384,552.74268 C 484.56383,555.80405 485.27306,558.17469 486.69153,559.85461 C 488.10997,561.53455 490.23823,562.37452 493.07629,562.37451 C 494.23269,562.37452 495.26833,562.17855 496.18323,561.78662 C 497.09808,561.3947 497.88222,560.89995 498.53564,560.30237 C 499.18902,559.7048 499.69317,559.0796 500.0481,558.42676 C 500.40297,557.77393 500.59865,557.16724 500.63513,556.60669 L 505.56384,556.60669 z M 517.47205,565.79077 L 512.54333,565.79077 L 512.54333,536.5022 L 517.19177,536.5022 L 517.19177,541.37451 L 517.30286,541.37451 C 518.27355,539.65758 519.4217,538.27644 520.74731,537.23108 C 522.0729,536.18578 523.66881,535.66312 525.53503,535.66309 C 525.83352,535.66312 526.07619,535.67252 526.26306,535.69128 C 526.44989,535.71011 526.63674,535.75654 526.82361,535.83057 L 526.82361,540.92676 L 524.9762,540.92676 C 523.81863,540.92678 522.78242,541.13215 521.86755,541.54285 C 520.95266,541.9536 520.16853,542.52297 519.51514,543.25098 C 518.86172,543.97903 518.35786,544.81899 518.00354,545.77087 C 517.6492,546.7228 517.47204,547.7217 517.47205,548.76758 L 517.47205,565.79077 z M 554.32117,565.79077 L 549.39416,565.79077 L 549.39416,547.75928 C 549.39414,545.21975 548.9461,543.30597 548.05005,542.01794 C 547.15395,540.72996 545.51076,540.08596 543.12048,540.08594 C 542.41181,540.08596 541.60944,540.2167 540.71338,540.47815 C 539.81729,540.73965 538.97732,541.2344 538.19348,541.9624 C 537.40962,542.69045 536.7471,543.68907 536.20593,544.95825 C 535.66475,546.22748 535.39416,547.85158 535.39416,549.83057 L 535.39416,565.79077 L 530.46545,565.79077 L 530.46545,536.5022 L 535.11389,536.5022 L 535.11389,540.64648 L 535.22498,540.64648 C 535.48701,540.27281 535.86071,539.79686 536.34607,539.21863 C 536.83141,538.64045 537.43781,538.08987 538.16528,537.56689 C 538.89273,537.04397 539.74181,536.59594 540.71252,536.22278 C 541.68321,535.84968 542.80374,535.66312 544.0741,535.66309 C 545.19403,535.66312 546.3607,535.80297 547.5741,536.08264 C 548.78745,536.36237 549.89801,536.87564 550.90576,537.62244 C 551.91347,538.36929 552.73463,539.4055 553.36926,540.73108 C 554.00384,542.05671 554.32114,543.76483 554.32117,545.85547 L 554.32117,565.79077 z M 581.79651,548.82227 C 581.72243,547.70233 581.53615,546.61029 581.23767,545.54614 C 580.93915,544.48204 580.47231,543.54865 579.83716,542.74597 C 579.20196,541.94334 578.38051,541.29934 577.3728,540.81396 C 576.36505,540.32864 575.11436,540.08596 573.62073,540.08594 C 572.50076,540.08596 571.44632,540.32864 570.4574,540.81396 C 569.46845,541.29934 568.60997,541.94334 567.88196,542.74597 C 567.15392,543.54865 566.57515,544.48204 566.14563,545.54614 C 565.7161,546.61029 565.50133,547.70233 565.50134,548.82227 L 581.79651,548.82227 z M 586.50134,556.60669 C 586.46372,556.9428 586.34238,557.43755 586.13733,558.09094 C 585.93222,558.74435 585.62432,559.45358 585.21362,560.21863 C 584.80287,560.98369 584.28021,561.75843 583.64563,562.54285 C 583.011,563.32727 582.22658,564.01799 581.29236,564.61499 C 580.95737,564.8383 580.57513,565.07129 580.14563,565.31396 C 579.71608,565.55664 579.19342,565.7714 578.57764,565.95825 C 577.96181,566.1451 577.22439,566.30404 576.36536,566.43506 C 575.50629,566.56608 574.49799,566.63159 573.34045,566.63159 C 571.28738,566.63159 569.4488,566.26758 567.82471,565.53955 C 566.20059,564.81152 564.82857,563.79411 563.70862,562.4873 C 562.58866,561.18051 561.73018,559.63103 561.13318,557.83887 C 560.53617,556.04672 560.23767,554.08652 560.23767,551.95825 C 560.23767,549.68076 560.51766,547.55279 561.07764,545.57434 C 561.63761,543.59593 562.48697,541.86929 563.62573,540.39441 C 564.76448,538.91958 566.22053,537.76232 567.9939,536.92261 C 569.76724,536.08296 571.86673,535.66312 574.29236,535.66309 C 576.42059,535.66312 578.26886,536.06444 579.83716,536.86707 C 581.40541,537.66975 582.71221,538.81761 583.75757,540.31067 C 584.80287,541.80378 585.58672,543.60504 586.10913,545.71448 C 586.63148,547.82395 586.89267,550.16668 586.8927,552.74268 L 565.50134,552.74268 C 565.50133,555.80405 566.21056,558.17469 567.62903,559.85461 C 569.04747,561.53455 571.17573,562.37452 574.01379,562.37451 C 575.17019,562.37452 576.20583,562.17855 577.12073,561.78662 C 578.03558,561.3947 578.81972,560.89995 579.47314,560.30237 C 580.12652,559.7048 580.63067,559.0796 580.9856,558.42676 C 581.34047,557.77393 581.53615,557.16724 581.57263,556.60669 L 586.50134,556.60669 z M 592.8092,536.5022 L 597.45764,536.5022 L 597.45764,540.64648 L 597.56873,540.64648 C 597.83076,540.27281 598.19506,539.79686 598.66162,539.21863 C 599.12816,538.64045 599.71605,538.08987 600.42529,537.56689 C 601.13451,537.04397 601.98387,536.59594 602.97339,536.22278 C 603.96288,535.84968 605.11103,535.66312 606.41785,535.66309 C 607.72349,535.66312 608.82436,535.84028 609.72046,536.19458 C 610.61651,536.54894 611.36334,536.96878 611.96094,537.4541 C 612.55849,537.93948 613.02533,538.46214 613.36145,539.02209 C 613.69753,539.5821 613.97723,540.04894 614.20056,540.42261 C 614.79868,539.75043 615.39625,539.11583 615.99329,538.5188 C 616.59026,537.92182 617.22487,537.41796 617.89709,537.0072 C 618.56927,536.59651 619.3346,536.2698 620.19311,536.0271 C 621.05156,535.78445 622.04078,535.66312 623.16077,535.66309 C 623.94459,535.66312 624.85918,535.79385 625.90454,536.0553 C 626.94983,536.3168 627.93933,536.80215 628.87305,537.51135 C 629.80668,538.22061 630.60022,539.21922 631.25366,540.5072 C 631.90702,541.79523 632.23372,543.46576 632.23376,545.5188 L 632.23376,565.79077 L 627.30505,565.79077 L 627.30505,546.86206 C 627.30502,544.84662 626.92249,543.2134 626.15747,541.9624 C 625.39238,540.71145 623.96452,540.08596 621.8739,540.08594 C 620.82797,540.08596 619.8849,540.31012 619.04468,540.75842 C 618.2044,541.20677 617.48577,541.79495 616.88879,542.52295 C 616.29176,543.251 615.82521,544.09096 615.48914,545.04285 C 615.15301,545.99477 614.98496,546.95607 614.98499,547.92676 L 614.98499,565.79077 L 610.05627,565.79077 L 610.05627,545.5188 C 610.05625,544.92181 609.99103,544.29661 609.8606,543.64319 C 609.73012,542.98981 609.48745,542.40163 609.13257,541.87866 C 608.77765,541.35574 608.3017,540.92621 607.70471,540.59009 C 607.10769,540.25401 606.36086,540.08596 605.46423,540.08594 C 604.75556,540.08596 603.95319,540.2167 603.05713,540.47815 C 602.16104,540.73965 601.32107,541.2344 600.53723,541.9624 C 599.75337,542.69045 599.09085,543.68907 598.54968,544.95825 C 598.0085,546.22748 597.73791,547.85158 597.73791,549.83057 L 597.73791,565.79077 L 592.8092,565.79077 L 592.8092,536.5022 z M 659.56213,548.82227 C 659.48805,547.70233 659.30177,546.61029 659.0033,545.54614 C 658.70477,544.48204 658.23793,543.54865 657.60278,542.74597 C 656.96759,541.94334 656.14614,541.29934 655.13843,540.81396 C 654.13068,540.32864 652.87999,540.08596 651.38635,540.08594 C 650.26638,540.08596 649.21194,540.32864 648.22302,540.81396 C 647.23408,541.29934 646.3756,541.94334 645.64758,542.74597 C 644.91955,543.54865 644.34077,544.48204 643.91125,545.54614 C 643.48172,546.61029 643.26696,547.70233 643.26697,548.82227 L 659.56213,548.82227 z M 664.26697,556.60669 C 664.22934,556.9428 664.108,557.43755 663.90295,558.09094 C 663.69785,558.74435 663.38995,559.45358 662.97925,560.21863 C 662.5685,560.98369 662.04583,561.75843 661.41125,562.54285 C 660.77663,563.32727 659.9922,564.01799 659.05798,564.61499 C 658.723,564.8383 658.34076,565.07129 657.91125,565.31396 C 657.48171,565.55664 656.95904,565.7714 656.34326,565.95825 C 655.72744,566.1451 654.99001,566.30404 654.13098,566.43506 C 653.27191,566.56608 652.26361,566.63159 651.10608,566.63159 C 649.05301,566.63159 647.21443,566.26758 645.59033,565.53955 C 643.96622,564.81152 642.59419,563.79411 641.47424,562.4873 C 640.35428,561.18051 639.4958,559.63103 638.8988,557.83887 C 638.3018,556.04672 638.00329,554.08652 638.0033,551.95825 C 638.00329,549.68076 638.28328,547.55279 638.84326,545.57434 C 639.40323,543.59593 640.2526,541.86929 641.39136,540.39441 C 642.5301,538.91958 643.98616,537.76232 645.75952,536.92261 C 647.53287,536.08296 649.63235,535.66312 652.05798,535.66309 C 654.18622,535.66312 656.03448,536.06444 657.60278,536.86707 C 659.17104,537.66975 660.47784,538.81761 661.52319,540.31067 C 662.5685,541.80378 663.35235,543.60504 663.87476,545.71448 C 664.39711,547.82395 664.6583,550.16668 664.65832,552.74268 L 643.26697,552.74268 C 643.26696,555.80405 643.97619,558.17469 645.39465,559.85461 C 646.8131,561.53455 648.94135,562.37452 651.77942,562.37451 C 652.93581,562.37452 653.97146,562.17855 654.88635,561.78662 C 655.80121,561.3947 656.58535,560.89995 657.23877,560.30237 C 657.89215,559.7048 658.3963,559.0796 658.75122,558.42676 C 659.1061,557.77393 659.30177,557.16724 659.33826,556.60669 L 664.26697,556.60669 z M 694.43054,565.79077 L 689.50354,565.79077 L 689.50354,547.75928 C 689.50352,545.21975 689.05548,543.30597 688.15942,542.01794 C 687.26333,540.72996 685.62014,540.08596 683.22986,540.08594 C 682.52118,540.08596 681.71882,540.2167 680.82275,540.47815 C 679.92666,540.73965 679.0867,541.2344 678.30286,541.9624 C 677.51899,542.69045 676.85648,543.68907 676.31531,544.95825 C 675.77412,546.22748 675.50353,547.85158 675.50354,549.83057 L 675.50354,565.79077 L 670.57483,565.79077 L 670.57483,536.5022 L 675.22327,536.5022 L 675.22327,540.64648 L 675.33435,540.64648 C 675.59639,540.27281 675.97008,539.79686 676.45544,539.21863 C 676.94079,538.64045 677.54719,538.08987 678.27466,537.56689 C 679.0021,537.04397 679.85118,536.59594 680.8219,536.22278 C 681.79259,535.84968 682.91311,535.66312 684.18347,535.66309 C 685.30341,535.66312 686.47007,535.80297 687.68347,536.08264 C 688.89683,536.36237 690.00738,536.87564 691.01514,537.62244 C 692.02284,538.36929 692.84401,539.4055 693.47864,540.73108 C 694.11321,542.05671 694.43051,543.76483 694.43054,545.85547 L 694.43054,565.79077 z M 707.7948,540.59009 L 707.7948,559.63159 C 707.79479,560.191 707.89733,560.62936 708.10242,560.94666 C 708.30748,561.26396 708.56867,561.49724 708.88599,561.64648 C 709.20328,561.79574 709.52998,561.87976 709.86609,561.89856 C 710.20218,561.91736 710.50125,561.92676 710.76331,561.92676 L 712.49792,561.92676 L 712.49792,565.79077 C 711.6024,565.86597 710.82795,565.94999 710.17456,566.04285 C 709.52115,566.1357 709.06399,566.18213 708.8031,566.18213 C 707.57034,566.18213 706.57144,566.02348 705.8064,565.70618 C 705.04133,565.38888 704.44404,564.95024 704.01453,564.39026 C 703.585,563.83028 703.28621,563.16777 703.11816,562.40271 C 702.95011,561.63766 702.86608,560.80681 702.86609,559.91016 L 702.86609,540.59009 L 698.89099,540.59009 L 698.89099,536.5022 L 702.86609,536.5022 L 702.86609,528.32642 L 707.7948,528.32642 L 707.7948,536.5022 L 712.49792,536.5022 L 712.49792,540.59009 L 707.7948,540.59009 z M 350.24109,621.06274 C 350.24108,622.66806 350.39973,624.16143 350.71704,625.54285 C 351.03433,626.92428 351.51969,628.11886 352.1731,629.12659 C 352.82649,630.13432 353.64765,630.92758 354.6366,631.50635 C 355.62552,632.08513 356.79218,632.37452 358.1366,632.37451 C 358.92043,632.37452 359.7792,632.22526 360.71289,631.92676 C 361.64655,631.62826 362.51471,631.1056 363.31738,630.35876 C 364.12001,629.61194 364.79193,628.60393 365.33313,627.33472 C 365.87429,626.06552 366.14487,624.46022 366.1449,622.5188 C 366.14487,621.32366 366.07025,620.00746 365.92102,618.57019 C 365.77175,617.13295 365.42625,615.77972 364.88452,614.5105 C 364.34275,613.24131 363.54921,612.18659 362.50391,611.34631 C 361.45856,610.50609 360.04039,610.08596 358.24939,610.08594 C 356.34443,610.08596 354.86018,610.47817 353.79663,611.26257 C 352.73306,612.04702 351.93041,613.00861 351.38867,614.14734 C 350.84692,615.28611 350.52022,616.49009 350.40857,617.75928 C 350.29691,619.0285 350.24108,620.12965 350.24109,621.06274 L 350.24109,621.06274 z M 371.1283,635.79077 L 366.47986,635.79077 L 366.47986,631.75928 L 366.36877,631.75928 C 365.8458,632.76644 365.24851,633.57821 364.5769,634.19458 C 363.90525,634.81095 363.20542,635.30571 362.47742,635.67883 C 361.74937,636.05196 361.00255,636.30404 360.23694,636.43506 C 359.4713,636.56608 358.73416,636.63159 358.02551,636.63159 C 355.52355,636.63159 353.45112,636.10893 351.80823,635.0636 C 350.16532,634.01827 348.8494,632.69267 347.86047,631.08679 C 346.87154,629.48092 346.17171,627.71668 345.76099,625.79407 C 345.35026,623.87147 345.1449,622.03289 345.1449,620.27832 C 345.1449,618.22528 345.41548,616.31207 345.95666,614.5387 C 346.49784,612.76536 347.29109,611.21617 348.33643,609.89111 C 349.38175,608.56611 350.66035,607.53018 352.17224,606.78333 C 353.68411,606.03653 355.41075,605.66312 357.35217,605.66309 C 358.69656,605.66312 359.84471,605.84028 360.79663,606.19458 C 361.74852,606.54894 362.56997,606.98758 363.26099,607.5105 C 363.95196,608.03348 364.52134,608.58434 364.96912,609.16309 C 365.41685,609.74189 365.78998,610.23635 366.0885,610.64648 L 366.20129,610.64648 L 366.20129,595.5835 L 371.1283,595.5835 L 371.1283,635.79077 z M 397.0929,635.79077 L 397.0929,631.5354 L 396.9801,631.42261 C 395.93532,633.13957 394.71283,634.43697 393.31262,635.31482 C 391.91238,636.19267 390.03648,636.63159 387.68494,636.63159 C 386.60257,636.63159 385.50113,636.49145 384.38061,636.21118 C 383.26008,635.93091 382.23327,635.43616 381.30017,634.72693 C 380.36706,634.0177 379.61112,633.08431 379.03235,631.92676 C 378.45357,630.76921 378.16418,629.31316 378.16418,627.55859 L 378.16418,606.5022 L 383.0929,606.5022 L 383.0929,625.93506 C 383.09289,627.12908 383.24214,628.13681 383.54065,628.95825 C 383.83914,629.77971 384.24047,630.44251 384.74463,630.94666 C 385.24877,631.45081 385.84606,631.81482 386.5365,632.0387 C 387.22692,632.26258 387.96406,632.37452 388.74792,632.37451 C 390.31676,632.37452 391.61444,632.06661 392.64099,631.45081 C 393.6675,630.83501 394.48867,630.05115 395.10449,629.09924 C 395.72027,628.14735 396.15891,627.10202 396.42041,625.96326 C 396.68186,624.82451 396.8126,623.71396 396.81262,622.63159 L 396.81262,606.5022 L 401.74133,606.5022 L 401.74133,635.79077 L 397.0929,635.79077 z M 453.53894,607.67798 C 453.16635,605.92345 452.55055,604.4956 451.69153,603.39441 C 450.83245,602.29329 449.87115,601.44392 448.80762,600.84631 C 447.74403,600.24877 446.63348,599.84745 445.47595,599.64233 C 444.31838,599.43729 443.25425,599.33475 442.28357,599.33472 C 440.4538,599.33475 438.74567,599.67085 437.15918,600.34302 C 435.57266,601.01525 434.18212,602.01387 432.98755,603.33887 C 431.79296,604.66393 430.85045,606.32506 430.16003,608.32227 C 429.4696,610.31952 429.12438,612.64374 429.12439,615.29492 C 429.12438,617.6465 429.34826,619.8491 429.79602,621.90271 C 430.24376,623.95635 430.99031,625.72971 432.03564,627.22278 C 433.08096,628.71587 434.45299,629.89193 436.15173,630.75098 C 437.85045,631.61003 439.95022,632.03955 442.45105,632.03955 C 443.34767,632.03955 444.35597,631.89942 445.47595,631.61914 C 446.59588,631.33887 447.70643,630.80681 448.80762,630.02295 C 449.90874,629.2391 450.92616,628.12855 451.85986,626.69128 C 452.79351,625.25404 453.48422,623.35906 453.93201,621.00635 L 459.19568,621.00635 C 458.82194,623.54477 458.19646,625.69154 457.31921,627.44666 C 456.4419,629.20179 455.43388,630.66724 454.29517,631.84302 C 453.15638,633.0188 451.9524,633.94279 450.68323,634.61499 C 449.41399,635.28719 448.1915,635.79134 447.01575,636.12744 C 445.83994,636.46354 444.7667,636.6689 443.79602,636.74353 C 442.8253,636.81815 442.09727,636.85547 441.61194,636.85547 C 439.33441,636.85547 437.11302,636.46326 434.94775,635.67883 C 432.78246,634.89441 430.85045,633.65283 429.15173,631.9541 C 427.453,630.25538 426.09037,628.05278 425.06384,625.34631 C 424.03731,622.63987 423.52405,619.34523 423.52405,615.4624 C 423.52405,612.36347 423.95328,609.53539 424.81177,606.97815 C 425.67024,604.42097 426.90213,602.21838 428.50745,600.37036 C 430.11274,598.52242 432.08206,597.08516 434.4154,596.05859 C 436.74872,595.0321 439.37144,594.51884 442.28357,594.5188 C 444.85955,594.51884 447.13677,594.89225 449.11523,595.63904 C 451.09364,596.3859 452.76445,597.36601 454.12769,598.57935 C 455.49085,599.79276 456.56438,601.1927 457.34827,602.77917 C 458.13208,604.36571 458.61743,605.99865 458.80432,607.67798 L 453.53894,607.67798 z M 483.03259,620.83887 C 482.84572,620.98813 482.60305,621.13738 482.30457,621.28662 C 482.00604,621.43589 481.558,621.57602 480.96045,621.70703 C 480.36286,621.83807 479.58812,621.98732 478.63623,622.15479 C 477.68431,622.32228 476.4433,622.49944 474.91321,622.68628 C 474.31505,622.76149 473.65197,622.88311 472.92395,623.05115 C 472.19591,623.21921 471.5146,623.47129 470.88,623.80737 C 470.24539,624.14348 469.71361,624.60064 469.28467,625.17883 C 468.85571,625.75705 468.64123,626.51327 468.64124,627.44751 C 468.64123,629.05282 469.06107,630.30323 469.90076,631.19873 C 470.74043,632.09424 472.09337,632.542 473.95959,632.54199 C 475.11713,632.542 476.23737,632.36483 477.32031,632.0105 C 478.40322,631.65617 479.36452,631.17111 480.20422,630.5553 C 481.04388,629.9395 481.7252,629.21147 482.24817,628.37122 C 482.7711,627.53097 483.03257,626.6255 483.03259,625.65479 L 483.03259,620.83887 z M 465.0011,615.40601 C 465.03755,613.65147 465.35457,612.15839 465.95215,610.92676 C 466.54972,609.69518 467.37117,608.68716 468.4165,607.90271 C 469.46182,607.11831 470.72191,606.54894 472.19678,606.19458 C 473.67162,605.84028 475.30512,605.66312 477.09729,605.66309 C 477.46983,605.66312 478.00161,605.69103 478.69263,605.74683 C 479.38361,605.80268 480.13955,605.92402 480.96045,606.11084 C 481.78131,606.29772 482.60248,606.56831 483.42395,606.92261 C 484.24538,607.27697 484.9922,607.76232 485.66443,608.37866 C 486.3366,608.99506 486.88718,609.75129 487.31616,610.64734 C 487.74509,611.54344 487.95957,612.60728 487.95959,613.83887 L 487.95959,630.69458 C 487.95957,631.85214 488.50132,632.43091 489.58484,632.43091 C 489.80812,632.43091 490.05991,632.41211 490.34021,632.37451 C 490.62045,632.33692 490.90984,632.28109 491.20837,632.20703 L 491.20837,635.79077 C 490.79819,635.90243 490.38775,636.02376 489.97705,636.15479 C 489.5663,636.28581 489.08066,636.35132 488.52014,636.35132 C 487.43776,636.35132 486.56048,636.22058 485.88831,635.95911 C 485.21608,635.69763 484.70282,635.36153 484.34851,634.95081 C 483.99416,634.54008 483.74237,634.06413 483.59314,633.52295 C 483.44387,632.98177 483.35044,632.43091 483.31287,631.87036 C 482.82749,632.39331 482.27663,632.93478 481.66028,633.49475 C 481.04388,634.05473 480.30646,634.56799 479.448,635.03455 C 478.5895,635.5011 477.60968,635.88391 476.50854,636.18298 C 475.40738,636.48205 474.14757,636.63159 472.72913,636.63159 C 471.38471,636.63159 470.15254,636.42623 469.03259,636.0155 C 467.91263,635.60478 466.94193,635.026 466.12048,634.27917 C 465.29903,633.53235 464.66443,632.64567 464.21667,631.61914 C 463.76892,630.59262 463.54504,629.44475 463.54504,628.17554 C 463.54504,627.5774 463.62907,626.80238 463.79712,625.85046 C 463.96517,624.89857 464.34769,623.95607 464.9447,623.02295 C 465.5417,622.08986 466.42838,621.24989 467.60474,620.50305 C 468.78108,619.75624 470.39578,619.25238 472.44885,618.99146 L 480.56824,617.98315 C 480.86672,617.94557 481.16551,617.88006 481.4646,617.78662 C 481.76365,617.69321 482.04364,617.52516 482.30457,617.28247 C 482.56545,617.03981 482.77053,616.704 482.9198,616.27502 C 483.06903,615.84609 483.14365,615.25791 483.14368,614.5105 C 483.14365,611.33751 480.84792,609.751 476.25647,609.75098 C 474.838,609.751 473.70865,609.93757 472.86841,610.31067 C 472.02815,610.68382 471.37475,611.15977 470.9082,611.73853 C 470.44164,612.31732 470.11494,612.93341 469.9281,613.58679 C 469.74124,614.24022 469.61079,614.84662 469.53674,615.40601 L 465.0011,615.40601 z M 520.19617,635.79077 L 515.26916,635.79077 L 515.26916,617.75928 C 515.26914,615.21975 514.8211,613.30597 513.92505,612.01794 C 513.02895,610.72996 511.38576,610.08596 508.99548,610.08594 C 508.28681,610.08596 507.48444,610.2167 506.58838,610.47815 C 505.69229,610.73965 504.85232,611.2344 504.06848,611.9624 C 503.28462,612.69045 502.6221,613.68907 502.08093,614.95825 C 501.53975,616.22748 501.26916,617.85158 501.26916,619.83057 L 501.26916,635.79077 L 496.34045,635.79077 L 496.34045,606.5022 L 500.98889,606.5022 L 500.98889,610.64648 L 501.09998,610.64648 C 501.36201,610.27281 501.73571,609.79686 502.22107,609.21863 C 502.70641,608.64045 503.31281,608.08987 504.04028,607.56689 C 504.76773,607.04397 505.61681,606.59594 506.58752,606.22278 C 507.55821,605.84968 508.67874,605.66312 509.9491,605.66309 C 511.06903,605.66312 512.2357,605.80297 513.4491,606.08264 C 514.66245,606.36237 515.77301,606.87564 516.78076,607.62244 C 517.78847,608.36929 518.60963,609.4055 519.24426,610.73108 C 519.87884,612.05671 520.19614,613.76483 520.19617,615.85547 L 520.19617,635.79077 z M 545.37634,620.83887 C 545.18947,620.98813 544.9468,621.13738 544.64832,621.28662 C 544.34979,621.43589 543.90175,621.57602 543.3042,621.70703 C 542.70661,621.83807 541.93187,621.98732 540.97998,622.15479 C 540.02806,622.32228 538.78705,622.49944 537.25696,622.68628 C 536.6588,622.76149 535.99572,622.88311 535.2677,623.05115 C 534.53966,623.21921 533.85835,623.47129 533.22375,623.80737 C 532.58914,624.14348 532.05736,624.60064 531.62842,625.17883 C 531.19946,625.75705 530.98498,626.51327 530.98499,627.44751 C 530.98498,629.05282 531.40482,630.30323 532.24451,631.19873 C 533.08418,632.09424 534.43712,632.542 536.30334,632.54199 C 537.46088,632.542 538.58112,632.36483 539.66406,632.0105 C 540.74697,631.65617 541.70827,631.17111 542.54797,630.5553 C 543.38763,629.9395 544.06895,629.21147 544.59192,628.37122 C 545.11485,627.53097 545.37632,626.6255 545.37634,625.65479 L 545.37634,620.83887 z M 527.34485,615.40601 C 527.3813,613.65147 527.69832,612.15839 528.2959,610.92676 C 528.89347,609.69518 529.71492,608.68716 530.76025,607.90271 C 531.80557,607.11831 533.06566,606.54894 534.54053,606.19458 C 536.01537,605.84028 537.64887,605.66312 539.44104,605.66309 C 539.81358,605.66312 540.34536,605.69103 541.03638,605.74683 C 541.72736,605.80268 542.4833,605.92402 543.3042,606.11084 C 544.12506,606.29772 544.94623,606.56831 545.7677,606.92261 C 546.58913,607.27697 547.33595,607.76232 548.00818,608.37866 C 548.68035,608.99506 549.23093,609.75129 549.65991,610.64734 C 550.08884,611.54344 550.30332,612.60728 550.30334,613.83887 L 550.30334,630.69458 C 550.30332,631.85214 550.84507,632.43091 551.92859,632.43091 C 552.15187,632.43091 552.40366,632.41211 552.68396,632.37451 C 552.9642,632.33692 553.25359,632.28109 553.55212,632.20703 L 553.55212,635.79077 C 553.14194,635.90243 552.7315,636.02376 552.3208,636.15479 C 551.91005,636.28581 551.42441,636.35132 550.86389,636.35132 C 549.78151,636.35132 548.90423,636.22058 548.23206,635.95911 C 547.55983,635.69763 547.04657,635.36153 546.69226,634.95081 C 546.33791,634.54008 546.08612,634.06413 545.93689,633.52295 C 545.78762,632.98177 545.69419,632.43091 545.65662,631.87036 C 545.17124,632.39331 544.62038,632.93478 544.00403,633.49475 C 543.38763,634.05473 542.65021,634.56799 541.79175,635.03455 C 540.93325,635.5011 539.95343,635.88391 538.85229,636.18298 C 537.75113,636.48205 536.49132,636.63159 535.07288,636.63159 C 533.72846,636.63159 532.49629,636.42623 531.37634,636.0155 C 530.25638,635.60478 529.28568,635.026 528.46423,634.27917 C 527.64278,633.53235 527.00818,632.64567 526.56042,631.61914 C 526.11267,630.59262 525.88879,629.44475 525.88879,628.17554 C 525.88879,627.5774 525.97282,626.80238 526.14087,625.85046 C 526.30892,624.89857 526.69144,623.95607 527.28845,623.02295 C 527.88545,622.08986 528.77213,621.24989 529.94849,620.50305 C 531.12483,619.75624 532.73953,619.25238 534.7926,618.99146 L 542.91199,617.98315 C 543.21047,617.94557 543.50926,617.88006 543.80835,617.78662 C 544.1074,617.69321 544.38739,617.52516 544.64832,617.28247 C 544.9092,617.03981 545.11428,616.704 545.26355,616.27502 C 545.41278,615.84609 545.4874,615.25791 545.48743,614.5105 C 545.4874,611.33751 543.19167,609.751 538.60022,609.75098 C 537.18175,609.751 536.0524,609.93757 535.21216,610.31067 C 534.3719,610.68382 533.7185,611.15977 533.25195,611.73853 C 532.78539,612.31732 532.45869,612.93341 532.27185,613.58679 C 532.08499,614.24022 531.95454,614.84662 531.88049,615.40601 L 527.34485,615.40601 z M 562.10046,621.06274 C 562.10046,622.66806 562.25911,624.16143 562.57642,625.54285 C 562.89371,626.92428 563.37906,628.11886 564.03247,629.12659 C 564.68586,630.13432 565.50703,630.92758 566.49597,631.50635 C 567.48489,632.08513 568.65156,632.37452 569.99597,632.37451 C 570.77981,632.37452 571.63857,632.22526 572.57227,631.92676 C 573.50592,631.62826 574.37409,631.1056 575.17676,630.35876 C 575.97939,629.61194 576.6513,628.60393 577.1925,627.33472 C 577.73366,626.06552 578.00425,624.46022 578.00427,622.5188 C 578.00425,621.32366 577.92962,620.00746 577.7804,618.57019 C 577.63112,617.13295 577.28562,615.77972 576.7439,614.5105 C 576.20213,613.24131 575.40859,612.18659 574.36328,611.34631 C 573.31793,610.50609 571.89976,610.08596 570.10876,610.08594 C 568.2038,610.08596 566.71955,610.47817 565.65601,611.26257 C 564.59244,612.04702 563.78979,613.00861 563.24805,614.14734 C 562.70629,615.28611 562.37959,616.49009 562.26794,617.75928 C 562.15628,619.0285 562.10046,620.12965 562.10046,621.06274 L 562.10046,621.06274 z M 582.98767,635.79077 L 578.33923,635.79077 L 578.33923,631.75928 L 578.22815,631.75928 C 577.70518,632.76644 577.10789,633.57821 576.43628,634.19458 C 575.76463,634.81095 575.0648,635.30571 574.33679,635.67883 C 573.60875,636.05196 572.86192,636.30404 572.09631,636.43506 C 571.33067,636.56608 570.59353,636.63159 569.88489,636.63159 C 567.38292,636.63159 565.3105,636.10893 563.6676,635.0636 C 562.02469,634.01827 560.70877,632.69267 559.71985,631.08679 C 558.73091,629.48092 558.03108,627.71668 557.62036,625.79407 C 557.20963,623.87147 557.00427,622.03289 557.00427,620.27832 C 557.00427,618.22528 557.27486,616.31207 557.81604,614.5387 C 558.35721,612.76536 559.15047,611.21617 560.1958,609.89111 C 561.24112,608.56611 562.51973,607.53018 564.03162,606.78333 C 565.54349,606.03653 567.27013,605.66312 569.21155,605.66309 C 570.55593,605.66312 571.70408,605.84028 572.65601,606.19458 C 573.60789,606.54894 574.42934,606.98758 575.12036,607.5105 C 575.81134,608.03348 576.38072,608.58434 576.82849,609.16309 C 577.27622,609.74189 577.64935,610.23635 577.94788,610.64648 L 578.06067,610.64648 L 578.06067,595.5835 L 582.98767,595.5835 L 582.98767,635.79077 z M 607.72009,620.83887 C 607.53322,620.98813 607.29055,621.13738 606.99207,621.28662 C 606.69354,621.43589 606.2455,621.57602 605.64795,621.70703 C 605.05036,621.83807 604.27562,621.98732 603.32373,622.15479 C 602.37181,622.32228 601.1308,622.49944 599.60071,622.68628 C 599.00255,622.76149 598.33947,622.88311 597.61145,623.05115 C 596.88341,623.21921 596.2021,623.47129 595.5675,623.80737 C 594.93289,624.14348 594.40111,624.60064 593.97217,625.17883 C 593.54321,625.75705 593.32873,626.51327 593.32874,627.44751 C 593.32873,629.05282 593.74857,630.30323 594.58826,631.19873 C 595.42793,632.09424 596.78087,632.542 598.64709,632.54199 C 599.80463,632.542 600.92487,632.36483 602.00781,632.0105 C 603.09072,631.65617 604.05202,631.17111 604.89172,630.5553 C 605.73138,629.9395 606.4127,629.21147 606.93567,628.37122 C 607.4586,627.53097 607.72007,626.6255 607.72009,625.65479 L 607.72009,620.83887 z M 589.6886,615.40601 C 589.72505,613.65147 590.04207,612.15839 590.63965,610.92676 C 591.23722,609.69518 592.05867,608.68716 593.104,607.90271 C 594.14932,607.11831 595.40941,606.54894 596.88428,606.19458 C 598.35912,605.84028 599.99262,605.66312 601.78479,605.66309 C 602.15733,605.66312 602.68911,605.69103 603.38013,605.74683 C 604.07111,605.80268 604.82705,605.92402 605.64795,606.11084 C 606.46881,606.29772 607.28998,606.56831 608.11145,606.92261 C 608.93288,607.27697 609.6797,607.76232 610.35193,608.37866 C 611.0241,608.99506 611.57468,609.75129 612.00366,610.64734 C 612.43259,611.54344 612.64707,612.60728 612.64709,613.83887 L 612.64709,630.69458 C 612.64707,631.85214 613.18882,632.43091 614.27234,632.43091 C 614.49562,632.43091 614.74741,632.41211 615.02771,632.37451 C 615.30795,632.33692 615.59734,632.28109 615.89587,632.20703 L 615.89587,635.79077 C 615.48569,635.90243 615.07525,636.02376 614.66455,636.15479 C 614.2538,636.28581 613.76816,636.35132 613.20764,636.35132 C 612.12526,636.35132 611.24798,636.22058 610.57581,635.95911 C 609.90358,635.69763 609.39032,635.36153 609.03601,634.95081 C 608.68166,634.54008 608.42987,634.06413 608.28064,633.52295 C 608.13137,632.98177 608.03794,632.43091 608.00037,631.87036 C 607.51499,632.39331 606.96413,632.93478 606.34778,633.49475 C 605.73138,634.05473 604.99396,634.56799 604.1355,635.03455 C 603.277,635.5011 602.29718,635.88391 601.19604,636.18298 C 600.09488,636.48205 598.83507,636.63159 597.41663,636.63159 C 596.07221,636.63159 594.84004,636.42623 593.72009,636.0155 C 592.60013,635.60478 591.62943,635.026 590.80798,634.27917 C 589.98653,633.53235 589.35193,632.64567 588.90417,631.61914 C 588.45642,630.59262 588.23254,629.44475 588.23254,628.17554 C 588.23254,627.5774 588.31657,626.80238 588.48462,625.85046 C 588.65267,624.89857 589.03519,623.95607 589.6322,623.02295 C 590.2292,622.08986 591.11588,621.24989 592.29224,620.50305 C 593.46858,619.75624 595.08328,619.25238 597.13635,618.99146 L 605.25574,617.98315 C 605.55422,617.94557 605.85301,617.88006 606.1521,617.78662 C 606.45115,617.69321 606.73114,617.52516 606.99207,617.28247 C 607.25295,617.03981 607.45803,616.704 607.6073,616.27502 C 607.75653,615.84609 607.83115,615.25791 607.83118,614.5105 C 607.83115,611.33751 605.53542,609.751 600.94397,609.75098 C 599.5255,609.751 598.39615,609.93757 597.55591,610.31067 C 596.71565,610.68382 596.06225,611.15977 595.5957,611.73853 C 595.12914,612.31732 594.80244,612.93341 594.6156,613.58679 C 594.42874,614.24022 594.29829,614.84662 594.22424,615.40601 L 589.6886,615.40601 z"
       id="text2389"
       style="font-size:40px;font-style:normal;font-weight:normal;line-height:125%;fill:#000000;fill-opacity:1;stroke:none;stroke-width:1px;stroke-linecap:butt;stroke-linejoin:miter;stroke-opacity:1;font-family:Bitstream Vera Sans" />
    <g
       transform="matrix(3.6849909e-2,0,0,3.5249818e-2,-229.28657,524.85951)"
       id="g2468"
       style="fill:#000000">
      <path
         d="M 0,-2.6112446e-13 L 0,3200 L 1598.9975,3200 L 1598.9975,-2.6112446e-13 L 0,-2.6112446e-13 z"
         id="path2455"
         style="fill:#000000" />
      <path
         d="M 3199.9526,290 L 2990.3615,698.71 C 2966.579,743.13 2923.9678,739.01 2881.3566,714.2 L 2729.6183,632.05 L 2842.7112,1259.82 C 2866.4938,1374.51 2790.1887,1374.51 2752.5317,1324.92 L 2487.7189,1014.97 L 2444.727,1172.37 C 2439.7693,1193.04 2417.971,1214.75 2385.2685,1209.58 L 2050.4097,1135.97 L 2138.3625,1470.29 C 2157.1909,1544.68 2171.8774,1575.48 2119.3545,1595.1 L 2000,1653.75 L 2576.4379,2143.29 C 2599.2536,2161.8 2610.7811,2195.11 2602.6585,2225.27 L 2552.2079,2398.37 C 2750.684,2374.45 2928.6267,2353.04 3127.0983,2329.15 C 3144.7336,2328.92 3173.9762,2344.59 3173.8558,2365.83 L 3147.5581,3000 L 3244.0581,3000 L 3228.8679,2367.19 C 3228.7474,2345.95 3255.2663,2328.92 3272.9016,2329.15 C 3471.3732,2353.04 3649.3161,2374.45 3847.7922,2398.37 L 3797.3417,2225.27 C 3789.2191,2195.11 3800.7465,2161.8 3823.5622,2143.29 L 4400,1653.75 L 4280.6456,1595.1 C 4228.1226,1575.48 4242.8092,1544.68 4261.6375,1470.29 L 4349.5905,1135.97 L 4014.7315,1209.58 C 3982.029,1214.75 3960.2307,1193.04 3955.2729,1172.37 L 3912.281,1014.97 L 3647.4683,1324.92 C 3609.8112,1374.51 3533.5061,1374.51 3557.2887,1259.82 L 3670.3814,632.05 L 3518.6434,714.2 C 3476.0311,739.01 3433.421,743.13 3409.6384,698.71"
         id="maple_leaf"
         style="fill:#000000" />
    </g>
  </g>
</svg>
