<?xml version="1.0" encoding="UTF-8"?>
<svg id="Layer_1" xmlns="http://www.w3.org/2000/svg" version="1.1" viewBox="0 0 525.4 189.7">
  <!-- Generator: Adobe Illustrator 29.3.1, SVG Export Plug-In . SVG Version: 2.1.0 Build 151)  -->
  <defs>
    <style>
      .st0 {
        fill: #231f20;
      }
    </style>
  </defs>
  <path class="st0" d="M121.6,61.9v-5.7h-10.8c-4.6-7.4-12.4-11.5-22.3-11.5s-17.7,4.1-22.3,11.5h-10.8v5.7h-10.6v83h87.3V61.9h-10.6ZM49.6,140.3v-73.7h10.6v-5.7h8.8l.7-1.2c4.6-8.5,12.9-10.3,19-10.3s14.3,1.8,19,10.3l.7,1.2h8.8v5.7h10.6v73.7H49.6Z"/>
  <g>
    <rect class="st0" x="55.6" y="125.4" width="66" height="2.6"/>
    <rect class="st0" x="54.2" y="130.6" width="68.7" height="2.6"/>
    <path class="st0" d="M118,118.2l-.7-25.5c.2.1.5.2.8.2.8,0,1.4-.6,1.4-1.4s-.2-.8-.4-1h1.2v-2.6h-63.3v2.6h1.2c-.3.3-.4.6-.4,1,0,.8.6,1.4,1.4,1.4s.5-.1.8-.2l-.7,25.5h-2.3v4.6h63.3v-4.6h-2.2ZM104.9,93c.8,0,1.4-.6,1.4-1.4s-.2-.8-.4-1h5.2c-.3.3-.4.6-.4,1,0,.8.6,1.4,1.4,1.4s.5-.1.8-.2l-.7,25.5h-7.4l-.7-25.5c.2.1.5.2.8.2ZM91.6,93c.8,0,1.4-.6,1.4-1.4s-.2-.8-.4-1h5.2c-.3.3-.4.6-.4,1,0,.8.6,1.4,1.4,1.4s.5-.1.8-.2l-.7,25.5h-7.4l-.7-25.5c.2.1.5.2.8.2ZM78.4,93c.8,0,1.4-.6,1.4-1.4s-.2-.8-.4-1h5.2c-.3.3-.4.6-.4,1,0,.8.6,1.4,1.4,1.4s.5-.1.8-.2l-.7,25.5h-7.4l-.7-25.5c.2.1.5.2.8.2ZM64.4,92.7c.2.1.5.2.8.2.8,0,1.4-.6,1.4-1.4s-.2-.8-.4-1h5.2c-.3.3-.4.6-.4,1,0,.8.6,1.4,1.4,1.4s.5-.1.8-.2l-.7,25.5h-7.4l-.7-25.5Z"/>
    <polygon class="st0" points="95.3 71.8 88.6 69.3 81.8 71.8 54.2 81.9 55.8 86.2 88.6 74.2 121.3 86.2 122.9 81.9 95.3 71.8"/>
  </g>
  <g>
    <path class="st0" d="M193.6,132.6c-.3-2-.4-4.6-.4-8.7-3.3,5.8-8.8,9.2-15.1,9.2s-9.6-2.6-11.3-7.1c-.8-2.3-1.2-5.8-1.2-13.2v-14c0-4.4-.3-6.2-1.3-7-.5-.5-1.3-.7-2.9-.8h-1.5v-1.9l13.2-.8c-.4,7.9-.5,9.9-.5,15.8v7.4c0,8.6.2,10.9,1.2,13.8,1,3.1,3.4,4.8,6.9,4.8s8.8-3.1,11-8.2c1.3-2.9,1.5-4.8,1.5-10v-13.1c0-4.5-.3-6.1-1.3-6.9-.5-.5-1.4-.8-2.9-.8h-1.5v-1.9l13.2-.8c-.3,6.4-.4,12-.4,15.8v16c0,8.5.8,10,5.2,10h.6v1.9l-12.4.6Z"/>
    <path class="st0" d="M220.3,79c5.1-6.4,12.5-9.7,21.6-9.7s16.5,3.2,21.6,9.7c4.7,5.9,7.1,13.3,7.1,22.2s-2.4,16.4-7.1,22.1c-5.3,6.5-12.4,9.8-21.6,9.8s-16.6-3.4-21.6-9.8c-4.7-5.9-7.1-13.3-7.1-22.1s2.3-16.2,7.1-22.2ZM226.4,121.6c3.4,6,8.7,9.3,15.5,9.3s12.1-3.2,15.5-9.3c3.1-5.5,4.6-12.1,4.6-20.4s-1.5-14.9-4.6-20.4c-3.4-6.1-8.7-9.2-15.5-9.2s-12.1,3.2-15.5,9.2c-3.1,5.6-4.6,12.3-4.6,20.4s1.5,14.7,4.6,20.4Z"/>
    <path class="st0" d="M289.9,120c0,5,.2,7.2,1.1,8.4.9,1.2,2.2,1.8,4.2,1.8s3.5-.4,5.3-1.5l.8,2.2c-2.8,1.4-5.5,2.1-8.6,2.1s-7.3-1.4-8.7-4.2c-.9-1.7-1.2-3.6-1.2-9.8v-27.5h-5.3v-2c5-.4,7.5-3.7,8.8-11.7l3.9-1.1c-.2,3.7-.2,6.9-.2,12.5h10.2v2.3h-10.2v28.5Z"/>
    <path class="st0" d="M317.9,120c0,5,.2,7.2,1.1,8.4.9,1.2,2.2,1.8,4.2,1.8s3.5-.4,5.3-1.5l.8,2.2c-2.8,1.4-5.5,2.1-8.6,2.1s-7.3-1.4-8.7-4.2c-.9-1.7-1.2-3.6-1.2-9.8v-27.5h-5.3v-2c5-.4,7.6-3.7,8.8-11.7l3.9-1.1c-.2,3.7-.2,6.9-.2,12.5h10.2v2.3h-10.2v28.5Z"/>
    <path class="st0" d="M374.6,131.9c-3.3.5-7.1.8-8.7.8-2.5,0-3.2-1.4-3.6-7-1.4,1.5-2.5,2.5-4.2,3.6-3.7,2.7-6.7,3.6-11,3.6s-6.5-.9-8.7-2.6c-2.3-2-3.7-5.4-3.7-9,0-6.7,4.2-11,12.5-12.9,4.4-1,8.9-1.6,15.1-2v-5.3c0-3.9-.3-5.9-1.2-7.7-1.1-2.2-3.5-3.3-7-3.3-5.6,0-8.5,2.5-8.8,7.8,0,1.8-.3,2.4-.9,2.9-.6.4-1.7.7-3,.7-2.9,0-4.2-.8-4.2-2.5,0-3.1,2.2-6.1,5.8-8.2,3.2-1.8,7.4-2.7,12.4-2.7s9.3,1.3,11.4,3.7c1.7,2.1,2.5,4.9,2.5,9.6s0,.3-.2,8.6v8.1c0,0-.2,3.9-.2,3.9,0,3.6.4,6.6.9,7.3.5.7,1.5.9,4.8.9v1.8ZM362.3,108.4c-7.6.7-10.9,1.4-14.3,3.1-3.7,1.8-5.7,5.2-5.7,9.7s2.9,9,7.1,9,8.7-2.5,10.9-6.2c1.4-2.4,1.9-5.9,1.9-11.5v-4Z"/>
    <path class="st0" d="M395.8,132.4h-4.4l-10.5-35.2c-1.4-4.8-2.5-5.9-6.6-6.1v-1.9h18.8v1.9c-4.1.2-5.7,1-5.7,3.1s.3,2,.8,3.7l7.6,26.7,11.2-34.3h3.5l10.8,34.3,7.4-25c.7-2.1,1-3.7,1-4.9s-.8-2.5-2.4-3.1c-1-.3-1.6-.4-3.8-.6v-1.9h16.6v1.9c-4.7.3-6.3,1.9-8.3,8.4l-10.3,32.9h-4.3l-10.6-32.6-10.8,32.6Z"/>
    <path class="st0" d="M480.5,131.9c-3.3.5-7,.8-8.7.8-2.5,0-3.2-1.4-3.6-7-1.4,1.5-2.5,2.5-4.2,3.6-3.7,2.7-6.7,3.6-11,3.6s-6.5-.9-8.7-2.6c-2.3-2-3.7-5.4-3.7-9,0-6.7,4.2-11,12.5-12.9,4.4-1,8.9-1.6,15.1-2v-5.3c0-3.9-.3-5.9-1.2-7.7-1.1-2.2-3.5-3.3-7-3.3-5.6,0-8.5,2.5-8.8,7.8,0,1.8-.3,2.4-.9,2.9-.6.4-1.7.7-3,.7-2.9,0-4.2-.8-4.2-2.5,0-3.1,2.2-6.1,5.8-8.2,3.2-1.8,7.4-2.7,12.4-2.7s9.3,1.3,11.4,3.7c1.7,2.1,2.5,4.9,2.5,9.6s0,.3-.2,8.6v8.1c0,0-.2,3.9-.2,3.9,0,3.6.4,6.6.9,7.3.5.7,1.5.9,4.7.9v1.8ZM468.2,108.4c-7.5.7-10.9,1.4-14.3,3.1-3.7,1.8-5.7,5.2-5.7,9.7s2.9,9,7.1,9,8.7-2.5,10.9-6.2c1.4-2.4,2-5.9,2-11.5v-4Z"/>
  </g>
</svg>